/* XPM */
static char *collectible-64[] = {
/* columns rows colors chars-per-pixel */
"64 64 182 2",
"   c #161227",
".  c #171227",
"X  c #161228",
"o  c #171228",
"O  c #171329",
"+  c #181227",
"@  c #181228",
"#  c #181329",
"$  c #18142A",
"%  c #18142B",
"&  c #19142A",
"*  c #19142B",
"=  c #19152B",
"-  c #181728",
";  c #1A152B",
":  c #19152C",
">  c #1A152C",
",  c #1A162C",
"<  c #1A162D",
"1  c #1A172D",
"2  c #1B162D",
"3  c #1B172D",
"4  c #1B172E",
"5  c #1C172D",
"6  c #191A27",
"7  c #1A1F26",
"8  c #191829",
"9  c #1C182E",
"0  c #1C182F",
"q  c #1C192E",
"w  c #1C192F",
"e  c #1D182E",
"r  c #1D182F",
"t  c #1D192E",
"y  c #1D192F",
"u  c #1C1C2C",
"i  c #1D1930",
"p  c #1E1930",
"a  c #1E1A30",
"s  c #1E1B31",
"d  c #1F1A31",
"f  c #1F1B31",
"g  c #1F1B32",
"h  c #1B2425",
"j  c #1B2625",
"k  c #1C2625",
"l  c #1E212C",
"z  c #1E3323",
"x  c #201B32",
"c  c #201C32",
"v  c #201C33",
"b  c #201D33",
"n  c #211D33",
"m  c #221D33",
"M  c #211D34",
"N  c #211E34",
"B  c #221E34",
"V  c #221E35",
"C  c #221F35",
"Z  c #231F35",
"A  c #241F35",
"S  c #232036",
"D  c #232137",
"F  c #242036",
"G  c #242137",
"H  c #252137",
"J  c #252138",
"K  c #262238",
"L  c #262239",
"P  c #262339",
"I  c #272339",
"U  c #27233A",
"Y  c #27243B",
"T  c #28243A",
"R  c #28243B",
"E  c #28253A",
"W  c #28253B",
"Q  c #29253B",
"!  c #2A253B",
"~  c #28253C",
"^  c #29253C",
"/  c #29263C",
"(  c #29263D",
")  c #2A263C",
"_  c #2B273D",
"`  c #2B283E",
"'  c #2D283D",
"]  c #2C283E",
"[  c #2C293E",
"{  c #203922",
"}  c #203B21",
"|  c #213A23",
" . c #203C21",
".. c #203D21",
"X. c #2D2A40",
"o. c #2E2B41",
"O. c #2F2B40",
"+. c #2F2B42",
"@. c #2E2C42",
"#. c #302C43",
"$. c #322D43",
"%. c #312E44",
"&. c #322E44",
"*. c #322F44",
"=. c #332F45",
"-. c #342F45",
";. c #333045",
":. c #323046",
">. c #333046",
",. c #343046",
"<. c #343047",
"1. c #343147",
"2. c #343248",
"3. c #353248",
"4. c #353249",
"5. c #38344A",
"6. c #39344A",
"7. c #3B384E",
"8. c #3E3A51",
"9. c #3E3B51",
"0. c #3E3B52",
"q. c #244D1D",
"w. c #244C1E",
"e. c #244D1E",
"r. c #25511D",
"t. c #25511E",
"y. c #26521F",
"u. c #275E1C",
"i. c #285E1B",
"p. c #285F1B",
"a. c #214021",
"s. c #264B23",
"d. c #2A472B",
"f. c #29651A",
"g. c #2A651A",
"h. c #2A641C",
"j. c #2A6919",
"k. c #2A6C18",
"l. c #2B6C18",
"z. c #2B6C19",
"x. c #2B6E18",
"c. c #2E7A16",
"v. c #2F7C16",
"b. c #316825",
"n. c #377925",
"m. c #403D54",
"M. c #433F54",
"N. c #454254",
"B. c #308115",
"V. c #308315",
"C. c #318914",
"Z. c #359314",
"A. c #359711",
"S. c #369813",
"D. c #38A40F",
"F. c #38A60F",
"G. c #37A110",
"H. c #37A210",
"J. c #38A510",
"K. c #3BB20D",
"L. c #3DBE0A",
"P. c #3EC00A",
"I. c #45B51D",
"U. c #44DC05",
"Y. c #46E504",
"T. c #47E803",
"R. c #47EA03",
"E. c #47EB03",
"W. c #49E807",
"Q. c #49EC04",
"!. c #49F102",
"~. c #4AF801",
"^. c #4BFB00",
"/. c #4CFE00",
"(. c #4EFE03",
"). c #50FE06",
"_. c #96FF6A",
"`. c #B8FF9A",
"'. c #BAFF9D",
"]. c #C5FFAC",
"[. c #FAFFF8",
"{. c gray100",
/* pixels */
"# # # # o O O o o # # o o o O g # # # # # # O O 4 % O O o O # o # # # # # # # # # # o O O 0 0 o o O O O # # % 4 # # o # # # # # ",
"# # # o o o O $ o # # # o J O O # # # # # o % o 4 % # R o o # # o # # # # # # # # # # A o o o o o o O o # # % % # A , o # # # # ",
"# # # # o o o # o # # # o 0 O O # # o # # o # # % o O # o # o O # o % # # # # # # # # % o O X o o o O O # # # # # # # % # # # # ",
"o # # # <.# # # o # # # O O O O # 4 % # # # # # O % O % % O O o # o M ) # # # # # # # O o O O 0 % o % o # # # # % # # o # # # # ",
"# # # # o # # # # # # # O O O $ # # # # o o o o # # # % % # o o # # % o # # # # # # # # # # # # o # # # O # # O # # 0 O # # # # ",
"# # # # o # # # # # # # O O o o o o # o o % o % # # O O R # o O o o o # # # o # # O O # o # # # # O # O O # # # # # J % # # # # ",
"o # # # # # # # # # # # # # # # # # o o o o o O # O O O # o O O # # # # # # # # # # o # % O # # # # O # # O # O # # o O # # # # ",
"# # # # # # b ) # # # # # # # # o o % # # # O O # O O O # # O O o # # # o &.# # o # # O # o # # # O O # # # # # # # # o # o # # ",
">.D # o O g o o # # # o # # # # # # # O 0 o o O # # # # o o % 0.% # # 0 4 # # # # # # # # # # # # o 0 # # # # # # # # # # 0.o O ",
"o o # # O o % o o # o # # # # # o # o % o o O o # # o # O o o O o # O O # # # # # # # # # # # # o o o # # # # # # # o # o o o % ",
"o o # # O O # g b o # # # # # # # b % 0.O O O O # o # # % o o O # # O # # # Y # # # # # # # # d % 7.% # # # # # # # o o # # # # ",
"o o # # o % # # o o # o # # # # # % # O O O O O # # # o # o o o # # # # # # # # # # # o o o % # O O # # # # # # o # # # # # # # ",
"o o o o # # # o O o O O # # # o % o # o o o o o # # # # o o o o # # + # O # O # # # O O % o # # O o O O O O O o o % O O # # # # ",
"o o o o # o # # o o % O # # , J O O # o +.d # o # o # o o o % o # # # # O # + # o % o # o ) % # % o O >.O o O % # O O o # # # # ",
"b # O O # # o # O O X.0 o o $ o , O O o o o # , # # # , , o >.o # # O O # # O O % &.o o o % , % O O O O # o % # o o 0 o <.o o o ",
"b , # o # # # $ O O o o o o 0 o O O O o o o o b o # # o o o o b # # # # # # # # # # o o % % # # O # # # # , 4 # o % o o o M o o ",
"# # O O O o o o o O % O # # # # # # # # # # # # o o o # # # # # o # o # # # # # o o # # # # # o # # # O O O O O O O # # # # # # ",
"# # o # O o o O o o O O # O O O # # # # # # # o o o o # # # o # o # # # # o # # # # # # # # # o # O # # O O O O # # # # # # # # ",
"# # # # o % % o o o o # O # # O O o # # # # # % #.o $ $ # # # # # o # # # # # # # # o # # o o o # # # # O O >.# # % # # # # # # ",
"# # # # o o o o o % o # # # O O &.o # # # # # # # # $ # # # # # # # # # o # o # # # # # # o Y J # O O O O # O # O % # # # # # # ",
"o o O o # o # o Y o # # o # % o # # # # o >.s.W.R.g.# # # # # # o # o # # # g.E.T.s.O O # # # # # # # <.% 4 # # # O O # # # # # ",
"o O O o # o O o # # # # # o o o # 0 # # % o y././.z.# # # # # # # # o # # # z././.t.$ O # # # , % # # # % % # # # # # # # # # # ",
"O O # o 8.# , , # # # # # # o o # # o # O O ..P.L.c.t.t.# # # # # # b >.t.t.v.P.P.... # # # # # # # # # o O % # # # O # # # # # ",
"o O # o % # o o # # # # # # % d $ , $ O O O O O # D././.6 # # # # # # 8 /./.F.@ $ . # # # b # , # # # # O O O # # O # # O # O # ",
"% # # o o o # o o O # # # # # o o o O $ + # # # # D././.u # # # # # $ @ /./.D.$ # # # # # # # # # # # # o % O O # O % % # o o % ",
"o o # o # # o o % O # # # # # # o o o o N.# { D.D.U././.I.J.J.J.J.J.D.D././.U.D.J.{ # # # # o # # # M.# # O O O # O A % o o # o ",
"# o # o # # # # # # # # # # o % # # # # # $ t././././././././././././././././././.t.# # # # o # # # # % # # o O # # # # # # # # ",
"# # # # # # % % # # # # # # o O # # # # # $ t././././././././././././././././././.t.# # # # # # # # % % # % d O # # # # # # # # ",
"o o o o O O % d d O # # O R O O # # # G W.~.~././.`.[.[.)././././././.).[.[.`././.~.~.Y.o o # # # # R # o % 4 O # # # # o # # # ",
"0 o O o % # # # O O # # # # O o # o # d Q././././.'.{.{.)././././././.).{.{.'././././.T.o # # # # # M # o o O O o # # # o , # # ",
"o o o o o # # # O # # # # # # R o ..i.i.!././././._.].]././././././././.].]._././././.!.u.b.d.# # # # # # # # % # # # # O o o o ",
"o % # # o # o o # # # # # # o o # A././././././././././././././././././././././././././././.Z.# # # # # # % 4 4 o A , o o O % O ",
"o o O O # # # # o o # # # ) # o # A././././././././././././././././././././././././././././.A.# # # # # # # o o o % O O % # # o ",
"# % O o >.# # # O # # # # # # # # A././.z.p.C././././././././././././././././././.C.h.z././.A.% # # # # # o o o O o O o o # # # ",
"o o o o % o # # O o # # # # o # # A././.h # t././././././././././././././././././.t.$ k /./.A.o # # # # # # o , , O 0 o o o # # ",
"O O % o o # # # o o # # # # # o # A././.k o t./././.~.~.~.~.~.~.~.~.~.~.~.~./././.t.o h /./.A.o # # # # # # # # o O d O % # o o ",
"o O o O o # o % O % o o # o # # # A././.k # t././.z.# # b # # # # # # # # # z././.t.# k /./.A.# # # o O O % # # o o M % o o o o ",
"o o % o o o 4 b O o o # # # o o # A././.k # t././.z.# # # # # # # # # # # R z././.t.# h /./.A.o # o o o o o # # o # # # o o O O ",
"X.M O O # d , d o # o # # # # # # g.J.J.l # ..G.F.v.z.z.z.z.e.-.# e.z.z.z.n.v.J.J.{ # 7 H.J.h.o # # , o # # # # o % # # o &.o O ",
"4 % # O % % # % o # o # # # # # # # # # $ + # $ $ J./.^././.K.J # K././././.J.# # # # # # # # # # o # o # # # # # o o % O A o O ",
"# # # # o # o d g O O % O % o o # b o 8.o o o o % H././././.K.# # K././././.J.o o o # # # # # d , 6., o % o o o # # # # # # # # ",
"# # # # # # # # O O O O o o % O $ o o 0 o o o o o z t.t.t.t.| # # ..t.t.t.t.| o o $ # # # # o # o , o o o O O o # # # O # O # # ",
"# # # # # # # # O o o o o o O o o o o O o o O O # # # # o # # # # # o # # o # # O o o o # o $ O o o o o o o o o # # # # # # # O ",
"# # # # # # # # O O O o o O O , o o o O +.d O o # # # # o # # # # # # o # # o o $ o o # # , o o % O % >.# o o o # # # # # # # # ",
", # o o # o o # o o +.d o o , b , o # # o o O O % o o % % o M % o # # # o # # # o >.o o O J , , o # # # # # # o # # , # d # # # ",
"b % # # # # o # # # o o o % 4 # # # # o o o O A o # # # # o ) 4 # # # # # # o # O O o o % , O O o # # # # , d o # # # # ) 4 # # ",
"4 % o # o # # # # # # o O % # # # # % o O O O O # o # # # # o 4 o # # # # # # # O O O o o O O O O o # # # # # # # # # # % 4 # # ",
"# # # # # o o # # o # # o o # # # # O O O O O O # # # # # # # # # # # o o # o # O O O $ o O O O o # # # # # # # # # # # # # # # ",
"# # # # % o o # o o o # # # # # o o o o o # O 0 R o o o o o # # o # # # O O o o # # # # # # # # o o o o # # X.# # o O O % # # o ",
"# # # # o o o # o % o % # # # # &.# o o % o O O d o % % # # # o o # # # O O O o # # # # # # A M O % o # # # 4 # O 4 o o o o # o ",
"o # # # o o O O Y o o O # O # o 4 # # # o &.o o O O O O # o # # O O # # O % A 0 o o # # # # % % # # # &.# # O O O O O o # o # o ",
"o # # # o o O O o o o O # # O % # 4 # # o % b % O O O O # o o # o O # # o o o o o O # # # # # 4 % # % % ; 4 O O O O O o # # # # ",
"o o # # d o o O o o # # # O O O # # # # # # # # O % o o o O # # o % % 4 % o # # o o o # # # # # # # # O O # # # # # # # o o o # ",
"o o # o 6.# % % # o o # # O # % # # # # # # # # o o O O o O # # o O M +.# , # # O % # o % 4 # # o o # # # # # # # # # # o % # # ",
"o o o o # # # o # o # # # # % 4 # , # # # # # # # o o O O O % # # # # # % o o o o # # # # 4 # % o o o O # # O O # o % # o % o o ",
"# # % o # # # # o # # # # # # # # # # # _ # # # o % o O ) o o # # # # # o # # # # # o o # # # # o o X.O O # # # o o J % o o o # ",
"# o o # # # # # o # # # # # # # O O O O X.# # # # # # 4 # # # # # # # # # # # # # o o o O o # # o o +.o # # # o O % % # # # # # ",
"# # # # # o # # # # # # # # # # O O O # # 4 # # # # # # # # # # # # O # O # O # # o o o % O # # o o o , o % # o o % # # # # # # ",
"# o # o # o % M d # # # # A # # O O o O # # # R # o o o # # # # O O O # # 4 A # O % % J o o o # o o # # o d A o o # # # # # # O ",
", # # o # o # % % # # # # 4 # # O O O +.4 # # # # o o # # # 4 # O O O # # # % # o o o , o o % O O o <.o o o # # % o # # # % O O ",
"% # # # # # # # o # % O # # # ) O % o # O O O O o o O O # # # # # # # # o # # o o # # # o M M # O # # # # # # # # # # # # % # # ",
"# # # # # # # # o # o O # # o # o # o # % O O O M o o , o # # # o # # # % # o o # # o o o # # # % o # # # # 4 4 # # # # # # # # ",
"# # # # # # # # o % O O o ) o # o o # # o O O O O o O Y o # o # # # # # # o o o # # O R o o o o O o o # # # # # # A , # # # # # ",
"# # # # M # # # o o o o o % # # o o # # o % O O O o o o o # # # # o % d o o o % o % O O O o o % O # o # # # # # # # # # # # # # "
};
