/* XPM */
static char *exit-64[] = {
/* columns rows colors chars-per-pixel */
"64 64 221 2",
"   c #050507",
".  c #060508",
"X  c #090609",
"o  c #0D080C",
"O  c #0D0B12",
"+  c #120A0E",
"@  c #150C12",
"#  c #120F1D",
"$  c #1B0E15",
"%  c #1B0F1B",
"&  c #1F1A0F",
"*  c #131115",
"=  c #14111B",
"-  c #181015",
";  c #1C121A",
":  c #161226",
">  c #171228",
",  c #191225",
"<  c #181329",
"1  c #1D192E",
"2  c #1F1A30",
"3  c #210F17",
"4  c #210F18",
"5  c #22170C",
"6  c #211017",
"7  c #231018",
"8  c #2B131D",
"9  c #32161F",
"0  c #3A151F",
"q  c #251525",
"w  c #211729",
"e  c #201D23",
"r  c #231A2D",
"t  c #2E1521",
"y  c #2C1827",
"u  c #2A1929",
"i  c #211D32",
"p  c #281E30",
"a  c #351723",
"s  c #371824",
"d  c #3A1723",
"f  c #381824",
"g  c #3A1D29",
"h  c #292211",
"j  c #3E3418",
"k  c #272021",
"l  c #282120",
"z  c #252136",
"x  c #272338",
"c  c #292335",
"v  c #29263B",
"b  c #2D293D",
"n  c #352728",
"m  c #342E2A",
"M  c #3D232E",
"N  c #342433",
"B  c #322738",
"V  c #302935",
"C  c #332B3C",
"Z  c #382836",
"A  c #3E2B39",
"S  c #33312B",
"D  c #37313E",
"F  c #3C3831",
"G  c #2F2B41",
"H  c #322E44",
"J  c #353145",
"K  c #393241",
"L  c #39354A",
"P  c #3F3A45",
"I  c #3D394E",
"U  c #3F3B50",
"Y  c #431218",
"T  c #431722",
"R  c #441823",
"E  c #4B1823",
"W  c #521721",
"Q  c #531923",
"!  c #5C1923",
"~  c #432B13",
"^  c #463B1C",
"/  c #43262D",
"(  c #402834",
")  c #402F3A",
"_  c #42333F",
"`  c #493034",
"'  c #51393B",
"]  c #6A151B",
"[  c #631A23",
"{  c #6B1A23",
"}  c #741B24",
"|  c #7C1C24",
" . c #7B2221",
".. c #413442",
"X. c #403D52",
"o. c #4D4436",
"O. c #775F1E",
"+. c #7B6922",
"@. c #51414B",
"#. c #574D42",
"$. c #565157",
"%. c #595457",
"&. c #585259",
"*. c #675855",
"=. c #60595C",
"-. c #6E6158",
";. c #6C6667",
":. c #796E68",
">. c #76706D",
",. c #7D7763",
"<. c #841D24",
"1. c #8B1D24",
"2. c #951D24",
"3. c #9C1E25",
"4. c #8E3D17",
"5. c #962323",
"6. c #A11E24",
"7. c #AA1F25",
"8. c #AF1F28",
"9. c #B11F24",
"0. c #B5231F",
"q. c #BE2D1F",
"w. c #A42025",
"e. c #AD2125",
"r. c #B22124",
"t. c #B52A22",
"y. c #B82623",
"u. c #BB2C20",
"i. c #BB7C1C",
"p. c #B07B23",
"a. c #8C7B6F",
"s. c #827B73",
"d. c #887E70",
"f. c #C02F1D",
"g. c #C3331D",
"h. c #CB3B1A",
"j. c #CE4018",
"k. c #D44516",
"l. c #D14219",
"z. c #D64817",
"x. c #D54C18",
"c. c #DB4D14",
"v. c #E5590E",
"b. c #EB5E0D",
"n. c #E15412",
"m. c #E65810",
"M. c #EA5D10",
"N. c #ED620C",
"B. c #E26417",
"V. c #E76B11",
"C. c #F0640C",
"Z. c #F56B07",
"A. c #F56B09",
"S. c #F4730A",
"D. c #F3790E",
"F. c #F27D24",
"G. c #B6801D",
"H. c #BF982B",
"J. c #BB9D32",
"K. c #888277",
"L. c #8E877A",
"P. c #9D816E",
"I. c #948972",
"U. c #D9B032",
"Y. c #F5820E",
"T. c #F48D12",
"R. c #F59113",
"E. c #F59A16",
"W. c #F59E1C",
"Q. c #F3A41B",
"!. c #F6A91C",
"~. c #E7A92A",
"^. c #F6AA22",
"/. c #F5AF2A",
"(. c #F6B426",
"). c #F6BB2B",
"_. c #F8B62C",
"`. c #F8BA2B",
"'. c #F5B732",
"]. c #ED9C52",
"[. c #E1A77E",
"{. c #F0B164",
"}. c #F7BA69",
"|. c #F6BB75",
" X c #ECC63C",
".X c #F7C02E",
"XX c #F8C433",
"oX c #F8CC38",
"OX c #FAD33D",
"+X c #F3CA47",
"@X c #EDD068",
"#X c #F7C16E",
"$X c #F7D576",
"%X c #F7DE75",
"&X c #938D81",
"*X c #9B9384",
"=X c #A39A86",
"-X c #A39C8C",
";X c #A99B82",
":X c #AFA282",
">X c #ABA48E",
",X c #B7AF95",
"<X c #B8B093",
"1X c #C49F82",
"2X c #C2B493",
"3X c #DABD9A",
"4X c #D4C09D",
"5X c #DECB97",
"6X c #D4CBA5",
"7X c #D9CEA4",
"8X c #DACFA8",
"9X c #DDD4AD",
"0X c #E3C892",
"qX c #E2D598",
"wX c #E4DAAE",
"eX c #E8DEAE",
"rX c #F8E281",
"tX c #F0E6B7",
"yX c #F0E7B8",
"uX c #F6EDBE",
"iX c #FAF0BE",
/* pixels */
"< < > > < < > > < < > > > < < i < < > > > > > < 1 < > > < > > > > > < < > > < < > < > < > 1 1 > > > > > > > < 1 > > < < < > > < ",
"> < > < < < < > > > > > > i < > > < > < > > > > 1 > > v > < < < > < > < < > > > < > < i > > > > > > > > > < 1 < < i < < < < > < ",
"> > > < < < < > < > > > > 1 < > > < > < > > > > > : > > > > > < < < < > > > > < < < < < > > > > < < > > > < < < < < < < < > < < ",
"> > < > H > > > > < > > > > < < > 1 < > > > > > > 1 > > > < > > > > i b > > > > < < < > > > > < < < < > < < < > < < < < < < < > ",
"> > > > > > < < > < < > > < < > < > > < > > > > > > > < < < > > > < > > > < > > < : < < < < : < > > > > > > < > < < 1 < > > > > ",
"> > > > > > < < > > > > > > < > > > > < > > > > > > > < v < > > > > > > > > < < : > < < < < < < > > > > > > > > < < i < < < > > ",
"> > > > > > > < : < > > > > > < < > < > < > > > > > > > > > > > > > > > < < > > > > < > < > < < > < < > > > > > < < > > > > > > ",
"> > > > > > r b < < > : > > > > > > > > > < > > > > > < > > > > > > < > < H > < > > < > > < < < < < > > > < > < < < > > > > > > ",
"H i > > < 2 > < > : < > : < < < > > > > 2 > > > > > > > > > > X.> > > 1 2 < < < < < < < < : < < > < 1 < > > > < < < > > < U > > ",
"< > < > < > > < < < > > > > : < < < > > > > > > > > > > > > > > < > > > < < < < : < > < < < < < < < < < > < < < < < < < > > > < ",
"< < < > > < > 1 i > < < < < < < > i > U > > > > > > > > > > > > > > > > < < p > > < > > < < < i < L > < > > < > < < > > > < > > ",
"< < < < > > > > < < < > < < < < < > > > > > > > > > > > > > < > > , > > < < 1 > > > > > < < < < > > > > > > < > > > < > > > > > ",
"< < < < > > > > > > < < < < < < > > > > > > > > > > > > > > < > , < > > > > > > > > > > > > < < > > > 1 < > > < > > < > > > > > ",
"< < > < > < > > > < > < < : 1 i > > > > C 1 > > > > > > < > > < < < > > > > > > > > > > 1 p < < > > < H < < < < > < > < > > > > ",
"i < > > > < < < > > G < : > > < z > > > > > < 1 > > > , < > J > < < < > > > > > < H i i i i v i i < < < < < < < < > 1 < H > > > ",
"2 < < > < < > > < < < < < < 1 1 &XD > > > > < 2 > < < < > > > z < < > > > > > p p r #   % 8 f f t p i 1 < < 1 > < < < < 1 2 < < ",
"< < > > > > > < > > > > > > < > i &XK < < < > < > > > > > > > < < < < < N N N g a 7 4 4 o X 7 a s s 4 # 1 > > > > > < < > > > > ",
"< < < > > > > > < > > > > > < < < i *XK < < > < > > > > > > < < 1 c C M s a s s E R R f 9 8 + a R s a X - 2 > > > < < < > > < < ",
"< < < > > < > > < < < < > > > : < < 2 &XX.< > < G > < < > > > b N f f a s R { { 8.8.w.{ { d f d 2.E a $   ; J < > < < < > < > < ",
"< < < < < > > > > < < < > > > > J < < x =X-X2 > > > 1 < 2 K e ; @ @ $ f f g ! ! ! ! 6.9.9.1.[ d 8.[ a a o s r < < < < < < < > < ",
"< < < < > < < < i 1 < < > > : < > < > > s.uX,Xc > > r v V - + + $ a d W Q W W Q W Q Q [ w.r.r.{ 8.8.R a @ a s < > > > > < > > > ",
"> < < < < < < < < < < < < < < < > r , > < L.iX>X1 c A 8 s d a [ } } | 9.r.r.r.j.h.9.6.! <.u.g.9.9.r.R 8 o a 0 1 > > > > > < > > ",
"> > < < I < < < : < : < < < > > < < > > > 1 s.uX*XM s s d W 1.w.W ! w.n.n.v.h.q.C.h.8.7.] u.k.9.9.} f 4 4 d a < > > > > < > > > ",
"> < < < < < < < < < < < < < < i 1 < > > > i B d.:.*./ s { } 0 Q  .h.g.r.r.n.Z.k.m.Z.h.9.| r.q.9.6.! f f d a a 1 > > > > > > > < ",
"> < > > < < < > > < < > < > > : > > > > 1 _ d s d.9X:Xd d ` ;X1X[.|.{.c.q.y.n.A.n.Z.N.9.r.n.k.9.1.s a f f a y < > > < > > > > > ",
"< > > < < < < > < > > > < : > > > > < c @.f d s M P.7X6XwX9X7X#.e n <X5X].B.x.Z.R.Z.A.k.u.N.h.8.<.| R f a a q < > < z 1 > > > > ",
"< > < > < < < < > > < > < < > > > 1 ..f s d d a d Q 4XiX2X,.+         F I.@XW.S.Q.Y.A.m.b.m.9.7.! 2.R a f y > > > , < < > > < > ",
"> > > < < < > > > < > > > < > > 2 ..g 4 6 9 d } 1.3.3X2Xl                 o.p.E.`.Y.A.A.A.n.9.} | R f a $ ; 1 > > > < < > < > > ",
"> > > > < > < 2 2 < < > > i > 1 C $ X + 7 [ e.q.j.F.0X;                     +.).XXY.A.A.C.0.8.8.} s s @ O 1 1 > > > > > < > > > ",
"< > < > > < > < < < < > < < < b . @ 4 a ! e.k.N.S.#XeX                    5 H.OX^.S.c.A.c.0.8.| s s % . > > > < > > > > > 1 > > ",
"< < < < > > < > < > < > < 1 C @ @ a a ! e.n.c.g.A.}.-.                    ^ oX(.T.z.g.n.e.{ 7.E a $ X # > > > > > > > > > > > > ",
"< < < < < > < > < > < > 1 G o 8 a a ! 8.h.5.q.V.(.$Xm                   j  X!.T.N.j.k.w.Y { ! a $   O > > > 1 r > i 1 > > > > > ",
"< > > < > > < < > > > : 2 , 8 f 9 ] 7.8.<.1.h.R.XXrXS         .     . ~ U.^.D.Z.n.g.w.Q s ! a $     > > > > > > > , > > > > > > ",
"< > < > J < < < > > : z ..s a f ! 7.6.1.1.q.D.!.OX%Xo.            & ~ ~.Y.A.A.b.r.2.E s a t $ . o > > > > > > > < < > > > > > > ",
"> > > > > > < < > > < C d d a ! e.2.R ! r.k.D.XXoXOXqX@     . . O.i.D.A.A.C.x.t.{ a a a s $ $ $ , > > > > > < < < < i > > > > > ",
"< > < > > < < < < > b ( f f ! 7.r.{ 0 3.8.N.A._.E.Q.+X4.+ h J.i.Q.S.A.C.k.u.<.Q a d } s d s s 1 > > > > > < < > < < 1 > > > > > ",
"> > < > > < > < < > ( d s f | 9.5.f ! r.u.N.A.R.T.A.T.W.'./.R.S.A.b.c.r.3.| s s | 2.R s a s r < > > < < < < > > < > i < < < > > ",
"< > > < < > 1 2 > V M s s R 9.9.2.a 2.9.c.A.A.T.Z.m.N.A.A.A.A.c.j.q.8.{ E d Q | 2.E s a s w > > < > < < < > > > > > < < < > : > ",
"b 2 < > > 1 < 2 > Z a d a 2.9.e.E a 2.9.k.A.A.A.C.h.u.u.u.u.t.w.1.E E E R 2.6.3.R a s u > > < > > < 1 < > > > > > < < < < H < < ",
"i < > < < 1 < > z A s d a 6.9.9.d f } 9.9.c.A.A.h.9.9.9.9.<.[ a R [ { 9.r.w.[ s a a u > > > < > , < < < > > > > < > < < < i : > ",
"< < > > > > > 1 D d s s s 5.9.9.d d d | r.r.c.A.N.h.9.2.[ d ! <.2.r.8.2.[ Q a a ' I.=X2 > < < 2 < L < < < < < < > < > : > < > > ",
"< < > > > > < > C s s d s 2.8.9.d f f d } 3.r.y.f.m.c.9.7.7.7.9.e.2.E d f a t % z 8XiXd.> > < > < 1 < < < < < < > > > > < > > > ",
"< > > > > < > < C s s s a E 9.9.{ f f 8 9 d } 6.9.9.9.9.9.9.2.} ! s d 8 4 $ : < > &.yX6XC > > > < < < < < < > < > > > > > > > > ",
"< > < > > > > > c 7 s s s R 8.r.2.d f a $ @ 4 E W W W W Q W R a d 6 + + # > > > > > &.yX9Xb > > < < < G : < > < > > > > > > > > ",
"1 < > > > > > > > c 3 d s a ! 6.8.<.R f d a + + X     X . . X X   o # > < > > < > H > &.>X,X2 1 < < < < > > > > > > 1 > i : > > ",
"i , > > > > > > > 1 + 6 f a a ! | 8.1.| | | | <.{ Y 3 @   o 4 7 = < < < < < > < > > > > 2 >.%.> < < < < > 1 1 > > > > > b 1 > > ",
"1 < > > > > > > > > 1 O 4 a a f d R E 6.6.6.6.3.E d a a t q > w < < > > > < < > > > > > 1 1 >.&.> < < < > , > > > > > > > 2 < > ",
"< < > > > > > > < < > 1 * . $ a a f f f a f f a s a y q 1 < > < > < < < > > > > > > > > > > > ;.> < < < > > > > > > > > > < > > ",
"< < < < < > > > > > < > < > > + % $ $ @ @ $ , 1 B < < < < > < < < > > > > > > < > > > > < < < < < > > > < < G > > > > > > > > > ",
"< < > < < > > > > < > > < < < < H < > > > > > < 1 < 1 1 < > < > > > < > > > > < > < < > < < x i > > > > < < 1 > > 1 > > > > > > ",
"> < > > > > > < i > > > < < < < < < < < > H > > > > > > < > < > < > < < > > x < > > > > < < < < < < < G > < > > > > > > > > > > ",
"> > > > > > > < 1 > > > > < < < > 1 < < > > i > > > > > > > > > > > > > < > < < > < < < > < < 1 < < < < < 1 < > > > > > > > > > ",
"> > > > r : < < > > > > > > > > < < < < > < > > > > > > > > > > < > < 1 < < < < > < > > < < < < < < > > > > > > < < < < > > > > ",
"> > < > L > < < > > > > > , < < < < < < > > > < > > > > > > < < > > i G < < < < > < < > < < < < < < > > > > > > < < < < > > > > ",
"> > > > < < < < > > > > > > < i < < < < > < < > > > > > > < < > > > > < > > > > > > > > < 1 < < < < < > > > > > < < < < > > > > ",
"< > > > < < : < > > > > > > > > < < < < v > > > > > > > x < < < < < > < > > > > > < > > < < < > < < G : > > > > < < p < > < > > ",
"< < > > < > < < > > > > > > > > < > > > b < > > < < < < < < < < > < > > > > > > < > < > > < > > > > G < < < < < < < > > > > > > ",
"< > < > < < < < > > > > > > < > < > > < > 1 > > < < < > < < < < > > > > > > > > > > > < > < > > > > > 1 < < < < < < < < < > > > ",
"< < > < > > < i i > < > < p > > < < < < < < > v < < < < < < < < > > > > > 1 x > > < < x < > > < > > < < < 1 i < < < < < < < < > ",
"< < > > > > < < < > > > < 1 > > < < < v 2 > > > > < > < < > < > > < > > > < < > < < < < > > < < > > H > < > > < < < < < < < > > ",
"< < > < < : > < > > > > < > > v < > < < > < > > > < > < < > > < > > < < < > > > < > < < < 2 i > > > > > < < < > < < < < < < < < ",
"> < < < > < > > < > > < < < < < < > < > < < > > i > < < > > < < > < < < > > > > < < < > < > > < > > > > < < 1 1 < < < < < < > < ",
"< < < < < < < > < > > > < v < < < < > > > > > > < > < x > < > > < > < < > > < > < < < x > < < < < > > > < < < < < p < < > > < > ",
"< < < < i > > > < < > > > > > < > < < > > > > > > > > > > < > < > < < 2 > > > > < < < < > < < < < < > > < < < < < < > < > < > > "
};
