/* XPM */
static char *floor-64[] = {
/* columns rows colors chars-per-pixel */
"64 64 126 2",
"   c #161227",
".  c #171227",
"X  c #161228",
"o  c #171228",
"O  c #171329",
"+  c #181227",
"@  c #181228",
"#  c #181329",
"$  c #18142A",
"%  c #18142B",
"&  c #19142A",
"*  c #19142B",
"=  c #19152B",
"-  c #1A152B",
";  c #19162C",
":  c #1A162C",
">  c #1A162D",
",  c #1A172D",
"<  c #1B162C",
"1  c #1B162D",
"2  c #1B172D",
"3  c #1B172E",
"4  c #1C172D",
"5  c #1C172E",
"6  c #1B182E",
"7  c #1C182D",
"8  c #1C182E",
"9  c #1C182F",
"0  c #1C192E",
"q  c #1C192F",
"w  c #1D182E",
"e  c #1D182F",
"r  c #1D192F",
"t  c #1E192F",
"y  c #1D1930",
"u  c #1E1930",
"i  c #1E1A30",
"p  c #1E1B31",
"a  c #1F1A30",
"s  c #1F1B31",
"d  c #1E1B32",
"f  c #1F1B32",
"g  c #1F1C32",
"h  c #1F1C33",
"j  c #201B32",
"k  c #201C32",
"l  c #201C33",
"z  c #201D33",
"x  c #211C32",
"c  c #211D33",
"v  c #221D33",
"b  c #201D34",
"n  c #211D34",
"m  c #201E34",
"M  c #211E34",
"N  c #221E35",
"B  c #221F35",
"V  c #231E34",
"C  c #231F35",
"Z  c #231F36",
"A  c #241F35",
"S  c #222037",
"D  c #232036",
"F  c #242036",
"G  c #242137",
"H  c #252137",
"J  c #262137",
"K  c #232138",
"L  c #252138",
"P  c #242239",
"I  c #262238",
"U  c #262239",
"Y  c #262339",
"T  c #26233A",
"R  c #27233A",
"E  c #27253B",
"W  c #28243A",
"Q  c #28243B",
"!  c #28253B",
"~  c #29253B",
"^  c #28253C",
"/  c #29253C",
"(  c #28263C",
")  c #28263D",
"_  c #29263C",
"`  c #29263D",
"'  c #2A263C",
"]  c #2A273D",
"[  c #2B273E",
"{  c #2C283D",
"}  c #2C283E",
"|  c #2C293E",
" . c #2C293F",
".. c #2D293F",
"X. c #2E293F",
"o. c #2E2A41",
"O. c #2E2B41",
"+. c #2F2B41",
"@. c #2F2B42",
"#. c #302C43",
"$. c #302D43",
"%. c #312D43",
"&. c #322D43",
"*. c #312E44",
"=. c #302F46",
"-. c #322E44",
";. c #322F45",
":. c #332E44",
">. c #332F46",
",. c #323046",
"<. c #333046",
"1. c #343046",
"2. c #343147",
"3. c #353148",
"4. c #353249",
"5. c #353349",
"6. c #39344A",
"7. c #39344B",
"8. c #3B384E",
"9. c #3C394F",
"0. c #3E3A51",
"q. c #3F3C52",
"w. c #3F3D53",
"e. c #403D53",
"r. c #433F54",
"t. c #464358",
/* pixels */
"# # # # o O O o o # # o o o o h # # # O # # # # 9 # # o O O O # # # # # # # # # # # # $ o > & $ $ o & O # # & 9 # # o # # # # # ",
"# # # o o o O $ o o # # o P o o # # # O # # # # 3 # o ] O O # # # # # # # o o # # # # Z $ o O O o o O O # # & & # Z 3 o # # o # ",
"# # # # o o o # o o O o o y o $ # # # # # # # # $ o o o O O O O # # # o # o # o # # o & o $ O $ # # # # # # # # # o # # # # # # ",
"o # # # 2.# # # o o O $ o o o o # & # # # # # # o > o $ O O O O # O j [ # o # # # O & # o o O $ & # # # # # # # 3 # o # # o # o ",
"o # # # o # # # o $ o $ o o o o # # # # O # # O o o $ & & $ O O # # # # # # # # # # O O & o & o # # O # # # # # o o 3 $ o # # o ",
"# # # # o # # o o o o o o $ o $ # # # # # O # # o $ o o ^ $ O O # # # # # # # # # # # # o o o o # # # # # O O # o o T & # o o & ",
"o # # # o # # o o o $ o $ o o o # O O # # O # O o o o o o O O O # # # # # # o o O # # O o o # # # # O O O O # # $ o o o o o o o ",
"# # # # # # n ] # # o o o o o $ O # # # O # # O o & o & o $ O O # # # # # <.# # # # # O O $ # # # O O # # # # O o o o $ o $ o o ",
">.n O O o h o o # # # o # # # # $ O O # 9 O O O # # # O # # # w.# # # > 9 & o # # # # # # # # # # O 9 # O O o o & O O # # 0.# # ",
"# O O O $ O $ o o # # # # # # o o o O O O O O O # O # # # # # O # # # # o $ # # # # # # # # # o O O O # O O & o O O # # O O # # ",
"o o # O O O O s h # # # # o # # & h O w.# # # # O # # # # # O O # # # # # o ^ # # # # # # # # h & 8.& # # # o $ # O # O O # # # ",
"o o # O O O O O & # # # # # # # O O O $ # # # # O # # # # O # # # # # # # # # # # # # # # # # # # # O # # O o o # O # # # # # # ",
"# # o o o o o O o o o o # o # o o o o o & # # # # # # # o o $ O o # o # # o o o o & O O O O # # # # # & o $ o $ # # # o O # # # ",
"# # o # o $ $ O o $ $ o o # 3 Z $ o $ o @.3 # # # O # O o & O O # # # o # # o $ o & $ o O ^ # # # # & -.o # o o o o # o # # # # ",
"n o o # o o o o $ o o.> o $ & o & & $ o o o # & # # # # & o >.# o # # o o o & o & %.o o O # 9 & $ o o o o & & # & o 9 o >.O O O ",
"h 3 # o o $ o o $ o $ o o o > o $ o o o o o # j # O # # # o o h o # o # # o o o o $ $ o & & # # o o o $ o 3 9 # # o o o o j O O ",
"# # o o # # # # O # # O # # # # # # # # # # # o o o $ o $ O # O o o $ o o o # # O # # O # O # # o O O O $ o o O O O # O # # O # ",
"o o $ o # # # # # # O # O # O # # O # # # # o o o # o o O O # # $ o o o o # # # # O # O # # # O $ O O O o o o $ O O O O O # # O ",
"o o o o # # # # O O O O # # # O O # # # O $ $ & o.# & # O # # O o o o o o o o # # + # + O O O O O O O O $ o <.o O & $ $ # # # # ",
"o $ o & # # # o O O # & # O # O %.o # # O o o $ O # & # # # # # o o o $ o o # # O O O # O O ^ A O O O O o o $ # O & o o # O # # ",
"O O O $ o # o # T o o o o o o o # # o # O >.h $ # # # # O O O O # # # # # # Z 3 # # + O # # # # O O # 2.o 9 # # O # O # O # O # ",
"O O O o o # # o # # # # o $ o $ # > & # O O & o # # # O O O O O # # # # # # # # O # # # # # # 3 O O # # & & # # # # # # # # O # ",
"O O o o 0.o & & # # # # $ o o o # o # # # # & o # O # # O O $ O # o n -.O & # + # # # # # # # # O # # # $ o o # # O # O # # # # ",
"O # $ o $ o $ o # # # # # o & 9 & & # # # # # o # # # # O O o o # $ o & # # # # # # # # # h & & O # # # o $ # # O # # # O O # O ",
"# O # # o & o o o $ o # $ O O O & # # # # # # + # # # # 3 o o $ o # o & O O # O O O O O # O O # o o $ o $ o $ o # # & # # # o $ ",
"# # # O # o o o # o # o o o O O & O O O t.# # # + # # # Z O o o o o o o O O # # O O # O # # O # $ o e.o o o o o # O A & # # o o ",
"O # O # o o o # # # # # o $ o o # # O O # # # # # o o 3 O O $ o & o o $ O O # O O O o # O # # # o O $ $ o o o o # # # # o o o $ ",
"# O # # o o # & # # # # o o $ o # O O O # - # h o # o o $ o o o o o # o O & O O O $ o o # O O # # o $ & $ $ s o # # O # # $ o o ",
"O O # O # # # j h # # o o ^ o $ # # # A 9 # # h o o o $ o o o o o o o # O $ T $ O O O ^ # # # # # # ] o # & s o # # # # # & # # ",
"& O o # # O # # # # # # o # o o # O # 9 - # # # o o o o $ o 3 o o $ o # O O o o O $ O O o o # # # # h o # # o o # # # # # > o # ",
"# # # # # O # # # # # # o o # ] O O O O # # # # o # # o o $ o o # # # # # # # # o o o o o h h & # o o o # # # # # # # # O O o # ",
"# # # # O # # O # # # # o & o & # O # # # # # # n o o ] o o o $ # o # # # # # # o $ o $ o o o # # # o o # # 9 9 & Z & O O O $ o ",
"O O $ o o o o $ # # # # # I O # o & $ o o $ o $ # # o o # # # # o o o o o o o o o # o T $ o & o o O O O # # O # # O o o $ o $ o ",
"O O O o >.& o o # # # # & O # # o > o o o o o o # # o + # # # # O & 9 o.& o & o # o & o o o o & o $ # # # # # # O O o $ o o o o ",
"O O $ o $ o o o # # # # o o # O # # o o o o o o # 3 # 3 # # # # O # O O O O o o # # o o $ o $ $ # # # # # # # & & O 9 o O O $ O ",
"O O o o o $ $ o # # # # # o # # # # o $ o o o $ # # # # 3 # # # O O # # # $ o o o # # # o o o o # # # # # # # # o $ 9 o O O O O ",
"O O # # o o $ $ # # # # O # # O # # # # $ o o o # # # # h # # # # # # # # # O O o # o # # # # # # # # # # O O # # # h # # # # # ",
"O O # O o o > n # # # # # # O # # # $ o o o o o # # o # # # # # # # # & # T # # # # o # # # # # # # # # O # # # # # # # # # # # ",
"[ h O # $ s 3 s o # # # # O # # # # O O 3 o o # # # # # # # # %.# # # & > n O O # # # # # # # # # # & # # # # # # # # # & >.# # ",
"j & O # o & o # o o # # # # # # # # # O $ o o # o # # o # # # A # # & & & # O O # # # # # # # & # # & $ # # O # # # # # # h O # ",
"# # # O # # O 3 h o $ o $ O # # # h o 8.& & o o # O # # O # O # # # # o O O P # o o # # O O O 9 3 2.3 $ # # # # # # # # # # # # ",
"# # # # # O # # & o o o # O # & # & o & o o O $ O O # O O # # # # # o # O $ & # & o # # & o O O # 3 o o # # # # # # # # # # # # ",
"# # # # # # # # o o o $ # # # & O O O # # & O # $ O o o # # # O o # # # o o o o # # # # & o o $ # # $ o # # # # # # # # # # # # ",
"# # # # # # # # $ o o o # # O & O O # & %.& # # o o $ $ # # # O o # o o o o & o # # # # & & o $ # # o -.# # # # # # # # O # O # ",
"3 # # # # # # # o $ [ 9 o # 3 h 9 # # # o o o $ o $ o & & # h # # # # o # # o $ o 4.O O O Z $ & # # # # o o o # # # 9 # j # o o ",
"h # # # # # # # o # $ o # o 9 # # # # # & o o h & o o o # # ' 9 o o # o o o o o O $ O O $ $ $ o # # # # o 3 9 o # # # # [ 3 o o ",
"3 # # # # # # # o # o # # o # # # # # # # O # # o o # # # # O 3 # o # # & o o o O O O O o o o o # # # # # # # # # # # # # 9 o o ",
"# # # # # # # # o # # # # # # # # # # # # O & o o o # # # # # # o # o # o o & o O O O O o $ o $ # # # # # # # # # # # # # o # # ",
"# # # # o o # # o # o $ o o o o o o o o $ o o & [ $ o o # O # # # # # # O O O O o # # # # # # & # # # # o o o.o o $ o o $ o $ o ",
"# # # # # o # o o # o o o $ o $ %.o # o o o o & 9 & & $ # # # O # # # # O O O O # # o # # # P n # # # # o o y o o ; o $ o o o o ",
"# # # # o # o o T o o o o o o o 3 o # # $ %.$ # $ o $ o # # # # # # O # O O Z 3 o o # # # # & & # # # -.o o o o o o $ o O O $ O ",
"# # # # # o o o 3 o o o $ o o $ # 3 # # O & h # o o o $ # # # # # # O O O O $ o # o # # # # & & & # # & 3 h o o $ o o o O O O O ",
"# # # # 3 # o o o o o o o o o o # # # # o o o o o o O O O O # # # # & & # & o # o o o o $ o o # o o # o # o o o $ o $ o O O O O ",
"# # # # 7.# o 3 $ $ o $ o o o & & # # # o o $ o o $ O O O O # # # # h %.& & o # o & o o o & # & # # o o # # o # o o o o O O O # ",
"# # # # # # # # o o o o o o $ s # # O O o o & o o O O O O # # # # # # # O O O $ o o $ o # s # & # # # o # # # # o & & # # # # O ",
"# # # # # # # # $ o o $ o $ o o O O O O o.$ o o o $ O O T # # # # # # # # O O o o & o o # # # O # # o.o # o # o O O Z # O O # # ",
"O # # # # # # # O O # # # # o # O O O O ' # $ o # # # > # o # # # # # # # # # o o $ o o $ o # # o o [ o o $ $ o # & O O O # # # ",
"# # O # # # # # O O # # # # # # O O O O # 9 o o # # # o # # # # # # # # # o o # o o o o o o # # o # # 3 o o o o # & # # # # # # ",
"# O # # # # & h 9 # # # # Z # # O O O O # o o ^ # # # # # o # # # # # # o 9 Z # o o $ T $ O O # # o & $ o 9 Z o # # # # # & # # ",
"& # # # # # # & & & # # # 3 # # O O O %.s o o o # # o # # # 3 # # # # # o # > # $ o o & O O O O $ o >.# # & o # # # # # # & # # ",
"# # # # # # # # # # O O # # # o.O # # # O O O $ # o & o o $ O # # # # # o o o $ # # # # # h h o o $ o o # o o o # # # # # & # # ",
"# # # # # # # # # O O # # # O O # # # # O O O o h o $ & o o O # # # # # $ o o o # # o # o # # o o o $ o # # & s # & # # # # # # ",
"# # # # O # # O # # O # O ] O O # # # # O O o o $ o $ Z $ o o o # o # # o $ o $ # # & T o # O o $ o o o # # # # # A 3 # # # # # ",
"# # # # j # # # # # O O O O O O # # # # O O $ o o o o $ o o o & o o 3 9 o o o o # # & o # # o $ o o $ o # # # # # # # # # # # # "
};
