/* XPM */
static char *collectible-128[] = {
/* columns rows colors chars-per-pixel */
"128 128 91 1",
"  c #161227",
". c #171329",
"X c #181227",
"o c #181329",
"O c #191C27",
"+ c #1C182F",
"@ c #1E1A31",
"# c #1C2625",
"$ c #1E3023",
"% c #221D2F",
"& c #211D34",
"* c #242037",
"= c #262339",
"- c #242832",
"; c #29253B",
": c #2C283F",
"> c #23362A",
", c #203A22",
"< c #2E2C42",
"1 c #2E3045",
"2 c #312E45",
"3 c #333146",
"4 c #353349",
"5 c #39364D",
"6 c #3B384E",
"7 c #3D3C52",
"8 c #244B1F",
"9 c #25521D",
"0 c #244C20",
"q c #265122",
"w c #375F34",
"e c #2A661A",
"r c #2A691A",
"t c #2D7717",
"y c #2E7B16",
"u c #3F4157",
"i c #413E54",
"p c #444155",
"a c #45445A",
"s c #49465C",
"d c #4A495F",
"f c #4C4C62",
"g c #504E64",
"h c #555167",
"j c #545369",
"k c #5A576D",
"l c #5B596E",
"z c #5C5A70",
"x c #487943",
"c c #5F6075",
"v c #615E6E",
"b c #605E74",
"n c #626076",
"m c #646378",
"M c #68667C",
"N c #6C697E",
"B c #73707F",
"V c #6C6D82",
"C c #726F85",
"Z c #747388",
"A c #77798E",
"S c #79768C",
"D c #7A798D",
"F c #7D7C92",
"G c #308215",
"H c #339013",
"J c #37A90F",
"K c #39AB0E",
"L c #3CB80C",
"P c #3FC609",
"I c #429F22",
"U c #41B316",
"Y c #41CE09",
"T c #43D706",
"R c #43D806",
"E c #49DE0D",
"W c #4EE412",
"Q c #49F302",
"! c #4CFE00",
"~ c #54FF0C",
"^ c #5BFF15",
"/ c #76FF3C",
"( c #817E94",
") c #8BFF5A",
"_ c #858290",
"` c #9693A8",
"' c #9B99AE",
"] c #A09DAD",
"[ c #A5A3B8",
"{ c #F6FFF2",
"} c gray100",
/* pixels */
"oooooooooooooooooooooo .......&2oooooooooooo...ooo...o..ooo..X..Xooooooooooooooooooo.X.....==ooooooooooooooo..ooooo...oooooooooo",
"ooooooooo.oooooo ooooo  ........oooooooooooo....+<+o.o..ooooooooooooooooooooooooooooo.......oooooooooooooooo.&=ooooo..oooooooooo",
"oooooo o....oooo ooooooo...o....oooooooooo.ooooo+&oooo22.X.ooooo..oooooooooooooo.oXooo......ooooooooooXooooo.@@o..oi&ooooooooooo",
"oooooooo....oooo.ooooooo..g.....oooooooooooooo..ooooo.@&...ooooo.ooooooooooooooooo.ooo&u....oooooooooooooooo.ooo...;+ooooooooooo",
"oooooooo....oooo..oooooooo;.....ooooo.oooo.ooooo.o..o.o.ooooX.ooXoooooo.oooooooooo.o..+&......oo.Xoooooooooooooo......oooooooooo",
"oooooooo....o ooo.oooooo.o....o.ooooo.oo.ooooooooo..ooooooooo.ooooX.oooooooooooooooo..........oo..oooooooooooooo....oooooooooooo",
"o oooooo@Foooooooooooooooooooooooo&&oooooooooo.ooo.....oooooooooooo.o5boXoooooooooooo..o.....oo&+.oooooXoooooooo.......ooooooooo",
"oooooooo.@ooooooooooooooooooooo.ooooooooooooooooo.+&...+ooooooooooooo+@oooooooooooooooo.....ooo+ooo.ooooooooooo@@...oo.ooooooooo",
"oooooooo oooooooooooooooooooo.ooooooooooooX.oo..ooooooo&&ooo.X.ooooooo..oooooo.o.ooX.oX.ooooooooooooooooXooooX.oooo.=ooooooooooo",
"oooooooooooooooooooooooooooooooooooooooXooo.oX.oooooooooooooX..XoooooooooooooXoooooooooooooooooooooooooo..ooooo.ooooo..ooooooooX",
"oooooooooooooooooooooooooooo.oooXoooooo.oooooooooooooooo++.o.X..o.ooooooooooo.oooo.X.ooo.ooooooooo.Xo..XXoooooooo.oo.@oooooooooo",
"ooooooooo oooooooooooooooo.ooooo...ooo..oooooooooooooooo72......oooooooooooo.Xooooo.ooooooooooooooo.oooo.o.o.ooooooo.g@.oooooooo",
"oooooooooooooooooXoooooooooooooooooooX.oo...oooooo....Xo........ooooooooooo.ooooooooooooooX.oooooooo.ooooo.o.ooooooo....oooooooo",
" oooooooooooooooooooooooooooooooooooo..ooooXoXoooo.....o........oo.ooooooooooo.Xoooo.oooooo.ooooo.ooooo.ooXooo.Xoooooo..o.oooooX",
"ooooooooooooo=2oooooooooooooooooXooooooooooo..ooooo...XX.........ooooooo..<=ooo.oo.XooX.ooooooooooXooX.ooooooooooooooo.ooooooooo",
"oooooooooooo.<sooooooooooooooooo..oooooooooooooo.o..............ooooooooooi4oooo.ooooo.ooooooooooo....ooo.ooooo.ooooo.Xooo..oooo",
" f<oooooooo&..o.oXooooo.oooooooooooo.o..+oooooooooooooooooooooz+ooooooo@=.....oo.oooooooooooooooooo.o@oooooooooooooooooooo+hoooo",
"Xh2ooo.ooo+<..o.oooooooooooooooooooooo..&oooX.ooooooooooo oo  V+.oooooo&=o....ooooooooo.oooooooooooo.@oooooooooooo.XooooX.+Voooo",
"X...oooooo...... oooooooooooooooo..oo......oo..Xoooooooooooo oooooooXX..oooo...oooo.oooooooooooooo..oooooooooooo.oooo.Xo...ooooo",
"..oooooooo......oooo.ooooooooooo.......+.oooooX.oooo ooooooooooooooooooooooo.o..oooooooooooooooo.....ooooooooooooooooo.ooo..oooo",
"....ooooooooooo<2o.ooooooooooooooo==oob5+.oo.o..ooooooooooooo ooooXoooXXo.oo5=ooooo..oooooooo.o:@..S@ooooooooooooooooooooooooooo",
"....ooooooooooo&&ooooooooooooooooo@@oo5;..o.....oo XoooooooooooooooooooXoooo=@ooooooooooooooo..&+.oa+ooooooooooooooo.o.ooooooooo",
"..X.oooooooooooo...oooooooooooooooo+ooo.........oooooooooooooooooooooooooooooooooooooooooo..o+......oooooooooooooo.oXoooooooXooo",
"X...oooooooooooo..ooooo.oooooooooooooooo........oooooo oooooooooooooooooooooooo.oooooo.oo.....oo....ooXoooooooooX.oo.ooooXoooooo",
".XXoooooooooooo oooooooooooooooooooooooooo..oooooooooooo....oo ooooooX.ooooooooooooo.oo.oooooooo..oooooo...ooooooooooooooooooooo",
"...ooo..oooooooooooooooooooooo oooooooo.oooooooooooooooo....oooooooXo.ooo.ooo.oooooo.ooooo.o.ooooooo..o....ooooooooooooooooooooo",
"X.XoooXoooooooooo o.o.ooooXX...oooooooo.oC< ooooooo oooo....ooooooooooooo.oo.Xooo.oo.oooooo+.oooooo...(.....oooooooooooooooooooo",
"...Xoooooo ooooooo...+..oooXo&f.ooooooo..@oooooooooooo o.....+ooooooooooo.Xoooooo.+..oooo.47o+oooooo..@.....oooooooo..oooooooooo",
"+oooo...oooooooooooo.V<..o..o...+&oooo......oooooooooo &@ ..@.ooooX.oo..ooooo.ooo+(o..oo.o+.o&@o...o.oo.o.o.oooo.oo.=+oo.@..o..o",
"iooooo..ooooo oooooo. ..o....+.. oooo.......ooo+oooooooooo..Z=oooooo.oXoooooooo.o.oo...oooo.oo.....o.o..oo..+oooooo...oo@Fo....X",
"o@+oXX.Xooooooooo.oo.ooooo..+=..o..ooooo....oo+4oooooooooo....@.ooooooooo.ooooXooooo.oooo@&ooooo.ooooooooo+&:.oooooo.......@.XX.",
".2&oXXoooooooooooooooooooo......ooooooo.o...oooo.oooooooooo.o 4.ooooooooooX.oo.ooooo.ooooooooooo.ooooooo......oooooo......@2.XXo",
".o.........XoooooX.oo.X.oooooooooooooooooooooooo...oooooooooooooo oo ooooooooooooooooooooooooooooooooo.o.....oooo.ooooooooo..ooo",
"..oo......X.ooooooooooo.ooo.oooooooooooooooooooo...oooooooooooooooooooooooooooooooo oooooooooooooooooooo....oooooooooooooooo..oo",
"ooooo.oo..X.oXooo..XooooooX.oo..oooooooooooooooo..o.ooooooooo ooooooooooooo oooooooooooooooooooooooooooo....o...oooooooooooXoooo",
"ooo.o.oo...Xo..oooooX.ooooooooo.ooooooooooooo.... o.ooooooooooooooooooooooooooooooooooooooooooo.ooo..ooo........oooooooooooooooo",
"ooo.ooooX.oooooo.ooooooo.ooooo..oo..ooooooooooo+s  .oooooooooooooooooooooooooooooooooooooooo....ooooooooooo.<5oooo..oooooooooooo",
"ooooooooo.ooooooX..o.ooo.X.Xoo...o.oooooooooooo+a ..o++oooooooooooo oooooooooooooooo oooooo . ..ooooooo..o..:5oooo@+oooooooooooo",
".oooooooooooX.oo..ooooooooo.o.o.<a.oooooooooooooooooo++oooooooooooooooooooooooooooooooooooo oi4oooooo....ooo.ooo.o@oooo.oXoooXoo",
"ooooooo.ooooo......o.Xo.oooo.X..=2.oooooo...oooooooo ooooooooooooooooooo oooo oooooooooooooo 2<oooooo....ooooooooooo.ooooooooooo",
".o.X...ooooooooo22ooooooooooooo.oooooooo..V+ rTTRRKooooo ooooooooooooooooooooJTTYRyooooooooooooooooooo@V....ooooo.o..XooooXooooo",
"XX.....oooX.oo..@@.ooooo.oooooo.oooooooo..2+.I!!!!Poooooooooooo  ooo ooooooooP!!!!Hoooooooooooooooooooo2.+2.oooooXoo.ooooooooooo",
"oo.....oooo.oo..oXoooooooooooooooo&&ooooooo.+H!!!!PooooooooooooooooooooooooooP!!!!Hoooooooooo .&+ooooooo.o@.ooooooooooooooooX.oo",
"oo....oooo..oooXoooooooooo.oooooooo.ooooooo..H!!!!Poooooooooooooooooo oooooooP!!!!Hooooooooooo...ooooooo....oooo.oooooo.oooo.ooo",
"ooooooo.o+oooooooooooooooooo..oooooooooo.....H!!!!P.ooooo.oooooooooo....ooo+oY!!!!Hooooooooooooooooooooo..ooooooooooX.oooooooooo",
"oooooo..&[ooo+&oooooooooooo...ooooooooooo....0GGGyGHHHHHX.oooooooooo.aF+HHHHHGyGGG8oXooooooooooooooooooo..o.ooooooXooooooooooo.o",
"oXooooooo+oooooooooooooooooo.o.o...ooooooo.....ooo8!!!!!Ooooooooooooo.+O!!!!!8ooooooooooo.+.oooooooooooo....oooooo.o.ooo.Xoo.Xoo",
"o...ooo...oooooooooooooooooo.@4..@&ooooooo....oooo8!!!!!#ooooooooooooooO!!!!!8oooo oooooo.=<.o&+oooooooo....ooooooo.ooooo..ooooo",
"oooooooo...Xoo....ooooooooXXoo.o..ooooooXXooXooooo8!!!!!OooooooooooooooO!!!!!8oooooooo ooooooooooooooooooooooo.ooo.X.........ooo",
"oooooo.o......oooXX.ooXoooXXoo.o..ooooooXXoooooooo8!!!!!-@oo ooooooooooO!!!!!8ooooooooooooooooooooooooooooooooooooo..&+.....oooo",
"oo.ooo..o.oo...oooo.oooooooooooo...ooooo6%ooo$8888t!!!!!xw00888888888889!!!!!t8888$oooooooooo ooooooXioooooooooooo.o.s@o....oooo",
"oo.XoooXoooo..Xooooooooooooooooo...ooooX_3oooH!!!!!!!!!!!!!!!!!!!!!!!!!!!!!!!!!!!!Hoooooooooooooooooo'.oooooooo.oo.o...o....oooo",
"ooX.ooo.ooooooooooooXoooooooo.ooooXoooooXXXooH!!!!!!!!!!!!!!!!!!!!!!!!!!!!!!!!!!!!Hoooooooooo oooooooooooooo....oo.@@.oooooooooo",
"ooo.ooX.ooooooooooooooooooooooooooooooooXo@ooH!!!!!!!!!!!!!!!!!!!!!!!!!!!!!!!!!!!!HooooooooooooooooXo..@oooo....oooooooooooooooo",
"oooooooooooooooooooXoooooooooooooooooooooo&ooH!!!!!!!!!!!!!!!!!!!!!!!!!!!!!!!!!!!!HooooooooooooooooXooo&oooo....oooo.ooooooooooo",
"ooooooooooooo+@ooXoooooXoooooooooooooooooooooH!!!!!!!!!!!!!!!!!!!!!!!!!!!!!!!!!!!!Hooooooooooooooooooo..o..&2o..oooooooooooooooo",
"o.....Xoooooo++;:...ooooo.io....ooooooooYQQQQQ!!!!/{{{{{~!!!!!!!!!!!!!!~{{{{{/!!!!QQQQQYoo..ooooooooooooo..@<...oooooooooooooooo",
"..X.X.oooo.oooo&=...ooooo.4o....oooXooodW!!!!!!!!!/}}}}}~!!!!!!!!!!!!!!~}}}}}/!!!!!!!!!R....oooooooobooooo......ooooo.oo.Xoooo.o",
"@+oo....oo.Xoooo....oooooooo....oo oooo4E!!!!!!!!!/}}}}}~!!!!!!!!!!!!!!~}}}}}/!!!!!!!!!Ro...o ooooooi.ooo.......o..ooooo.o&o.ooo",
"+oX.....oooooooo.o..oooooooo....ooooooooT!!!!!!!!!/}}}}}~!!!!!!!!!!!!!!~}}}}}/!!!!!!!!!Ro.....oooooXooooo..o.....Xo.Xooo.o+o.ooo",
"ooooooo.oooooooo..oooooooo.ooo&a oooooooT!!!!!!!!!/}}}}}~!!!!!!!!!!!!!!~}}}}}/!!!!!!!!!To..44o oooo.oooooooooo...ooooooo......X.",
"oooooooooooooooooooooooooo..o.+&oo#JKJKKQ!!!!!!!!!^)))))!!!!!!!!!!!!!!!!)))))^!!!!!!!!!QJJJUU#oooooooooooooooo..ooooooooXooo..oo",
"ooooooooo.Xoo.Xoooooooooooo.....oo$!!!!!!!!!!!!!!!!!!!!!!!!!!!!!!!!!!!!!!!!!!!!!!!!!!!!!!!!!!>ooooooooooooooo=:..o..oo.o.o..ooo.",
"ooooooooo.oo..ooooooooooo.+.oooooo$!!!!!!!!!!!!!!!!!!!!!!!!!!!!!!!!!!!!!!!!!!!!!!!!!!!!!!!!!Q#.oooooooooooooo++o.oos=.ooooXooooo",
"oooooooooooo.ooo..oooooooozoooX.oo$!!!!!!!!!!!!!!!!!!!!!!!!!!!!!!!!!!!!!!!!!!!!!!!!!!!!!!!!!!$oooooooooooooo  .o.oo+.ooooooooo o",
"oo.ooooooooooooo...ooooooo+oooo.oo$!!!!!!!!!!!!!!!!!!!!!!!!!!!!!!!!!!!!!!!!!!!!!!!!!!!!!!!!!!$oooooooooooooooo...o..oooooooooooo",
"oooo.o..o=oooooo..oooooooooooooooo$!!!!!LKKKKT!!!!!!!!!!!!!!!!!!!!!!!!!!!!!!!!!!!!TKKKKL!!!!!$ooooooooooooXoooo.....oooooooooooo",
"oooooo..+Aooooo...oooooooooooooooo>!!!!!$ooooH!!!!!!!!!!!!!!!!!!!!!!!!!!!!!!!!!!!!Hoooo,!!!!!$o&+ooooooooo oooo.o...oooooooooooo",
"....o.....o.oooo..X.oooooooo..Xooo$!!!!!,ooooH!!!!!!!!!!!!!!!!!!!!!!!!!!!!!!!!!!!!Hoooo,!!!!!$ooo ooo ooooooo o&&...o+oooo. oooo",
"....oo......oooo..oXoooooooooooooo$!!!!!,ooooH!!!!!!!!!!!!!!!!!!!!!!!!!!!!!!!!!!!!Hoooo,!!!!!$oooooooooooooooooooo..&+oooo.ooooo",
".....o...ooooooooXoooooooooooo..oo$!!!!!,ooXoH!!!!!!!!!!!!!!!!!!!!!!!!!!!!!!!!!!!!Hoooo,!!!!!$oooooooooooooooooooo.o...ooooooo o",
"....oooo.ooo.oooo..oooooooooooXooo$!!!!!,o..oH!!!!!QQQQQQQQQQQQQQQQQQQQQQQQQQ!!!!!Hooo ,!!!!!$oooooooooooooooooooooo.<+ooooooooo",
"X.o..oooooooooooooooooooooo.Xooooo$!!!!!,ooooH!!!!Pooooo4=ooooo oooooooooooooP!!!!Hoooo,!!!!!$ooooooooooooooooooo....i+oooooo...",
"oXooXoooooooo.oooooo.Xoooo..oooooo$!!!!!,ooooH!!!!Pooooooooooooooooooooooooo P!!!!Hoooo,!!!!!$oooooo..ooooooooooo.. ...o ooo ...",
"oXooooo.oo.oo..oo..X.oooooooo..ooo$!!!!!,ooooH!!!!Yoooooooooooooooooooooooo oP!!!!Hoooo,!!!!!$ooooo ....oooooooooooo.ooo...ooo..",
"..ooooX.o...o<iooo...ooooXooooXooo$!!!!!,ooo H!!!!P oooooooooooooooooooooo74oP!!!!Hoooo$!!!!!$oooooo....oooooooooooooooo..oooooo",
".Xooooooo...o=5o..oo.ooooooooooooo$!!!!!,ooooH!Q!!PoooooooooXXXXoooooooo. 4;oP!!!!Hoooo,!Q!!!$..oooooo..oooooooooooooooooo..oooo",
".V5ooo.ooo+<...o.oooXoooooooooooooO08888*+ooo,8888eYPPPPPPPPP8(&oo8PPPPPPPPPPe0088$ooooO00880+..ooooo&..oooooooooooooooooo&S ooo",
".4&ooo.Xo.o&.ooo.Xoo..oooooooooooooooooo+.o oooooo8!!!Q!!!!!!es+ooe!!!!!!!!!!0ooooooooooooooooooooooo+..oooooooooooooooooo+i ooo",
"..ooooooo...ooooooooXoooooooooooooooooooo oooooooo0!!!!!!!!!!eooooe!!!!!!!!!!0o oooooooooooooooooo oo...oooooooooooooooooooooooo",
"XX.Xooooooooo.oo.o.ooooo.ooooooooo...ooooooooooooo0!!!!!!!!!!eooooe!!!!!!!!!!0....oooooooooo.ooo+ooo....ooX..ooXoooooooooooooooo",
"..X.oooo..oo..o47o.oooooX.oooooooo=<ooDaoooooo oo.0!!!!!!!!!!eooooe!!!!!!!!!!0.oo.ooooooooXoooo4&oo'&...ooo.Xoo.oooooooooooooooo",
"ooooooooXooooooo+ooooo.oX.oooooo.+..oo&+.ooooooooo#GHHHHHHHHH,oooo$HHHHHHHHHH$.o.oooooooooooooooooo&oo..oooooo.Xooooooooooo oooo",
"ooooX..oooooooooooooooooo...oooo....ooo.oooooooo...o.o.o.oo.ooooooO.oooooooo.+oooooooooooooo. oooooooo....oooo..ooooooo oooooooo",
"ooooooooooooooooooo ....oooo..oo......o.ooo oooooooooooooooooooooooooooooo ooooooooo oooooo oooooooo....Xooo..X.oooooooooooooooo",
".oooooooooooooooooooo...oooX..oo......ooo.oooooooooooooooooooooooooooooooooooooooooooooooooooooooooo....oo.o....oooooooooooooo o",
".Xooo.Xooooooooooooo.o. .....ooo.....o.o &+ooooooooooooo.ooooooooooooooooooooooooo... ooXoooooooooooo.;ooX.X....oooooooooooooooo",
"o.oo..oooooooooooo..oo..o....o&o......oo.V;.ooo ooooooooooooooo.oooooo ooooo o ooo...oooo &+ooooooooo+Zooo.o.X..oooooooooooooooo",
"oooooXooooo..Xoooo...<+......&io.. ooooo........ooooo.o.....oooooooooooo oooooooo.4....oo.24o+o oooooooooooooo..oooo+ooooo...ooo",
"=oooo..ooooo..oo o...k<........o+&ooooooo..o....ooooooo@&...4@oo oooooooooooooooo.V+... o...o&&ooooooooooooooo..oooo&o. o5...ooo",
"4.oooooooooo..oooooo....oo..o@oooooooooooooooo+&.ooooooooo..k&oooooooooooooooooo..  ..oo..+.oooooooooooooooo&...ooooooo.+b. .ooo",
".*+oooooooooXooooooo....oo..+&oooooooooooooooo+2o.oooooooo....;oooooooooooooo oo... .ooo.+@.ooooooooooooooo&< ..ooooooo.ooo<ooo.",
".;+o..Xo.oooooooooooooooooooooooooooooooooooooooooo..ooooooo..:ooooooooooooooooo..oooooo......oo....ooooooooooooooooooooooo<.ooo",
".....ooo.ooooooooooooo.o.oooooooooooooo oooooooooooooooooooo.ooo ooooooooooooooo..ooo.o ....o.oo...ooooooooooooooooooooooooo.ooo",
"ooooooooXooo..oooo oooooo.ooooooooooooooooooooooooooooooooooooooooooooooooooo oo ..ooooo....oo.o..oooooooooooooooooooooooooooooo",
"ooooooooooooX.oooooooooooooooooooooooooooooooooo.oooooo.ooooooooooooooo o oooooo....oooo....ooooX.oooooooooooooooooooooooooooo.o",
".oooooo.oooooooooXoooooooooooooo....oo.ooooo...o.o......o..ooooooooooooooooo......oooooooo..oooo.X...oooo.o.o....o..oooooooooooo",
"oooooooooooo.ooo..oooooooooooooo.....ooooooo...=b.....oooo.Xoooo.ooooooooooo.....oooooo.ooo.o.ooooooXooooo..5s..oo..oooooooooo.o",
"ooooooooXooo.ooooooooooooooooooo...oooooooo.....2....&&.oooooooXo.oooooooooo.o....oooooo.o......ooooX.oooo.o&;....&+oooXoo.ooo..",
"ooo..ooo..oo.Xoooooooooooooooooo5k.ooooooooo............oooooo....oooooooooooo....oo.ooooo...h7.ooooo.ooo..o......+.ooo.oo.XoooX",
"..oooooooooo....oo....oooooooo..+&.oooooo..o....oo.ooo..oo.ooooo....oooooooo........ooooooo.o&+ooooooooooooo.ooX......X.ooX.ooo.",
".oo.ooooX.oo....45....oooo.oooooo.ooooooooZ=....oooooooooo.Xoooo....oooooooo.s;......ooooooooooooooooo&Soo+o.oo........Xooo.ooX.",
"..oooooo.XX.....o...ooooooooooooooooooooo.@.+5+.oooooooooooXooooX...oooooooo...o.X..ooooooooooooooooooo&o&2.............oooooooo",
"..ooooo.X..X...oo...oooooooooooooo@&oooooo.o....ooooooooooo...oooX..oooooooo..ooX...oooo.oooooo=+ooooooooo+o...........Xoooooooo",
"....oooooooo..oo...Xoo..o....X..oooooooooooooooooooo.X.Xoooooooooooo.ooo.+oooooo..oooooooooXX.ooooooooo.ooooooo.oooooooooooooXoo",
"....ooooo2oo..o..o.oXoo.oo.....Xoooooooooooooooo.ooo..X.ooooooXo..ooo@;o.o..oooooXX.oooooo..XXoooooooooo..oooooooooooo.o.ooo..oo",
"X.X.oooo@`oo.+&.oooo....oo..X.X.oooooooooooooooooooo....oXooooooXooooiZooo@@ooooooo.oooooooooooo....oooXoooooooX.ooooooo.ooooooo",
"ooX.oooooooo....oo....Xooo..o+@.o+oXooooXooooooooo.o....o...oooooooooooooooo.ooooooooX..oo+@oo+o....ooo.ooooooo.oo.ooooo.Xoooooo",
"oo..Xooooooooo.oooX..ooooooXo@<oo+&.ooooooooooooooooo...oooooooooooooooooooo..ooX.oooooooo&;oo@+..o..Xooooooo.o.oo..ooooooooo.Xo",
"oo.oooX.ooooooooooo...oooooXoooooo..oooooooooooooooooo..ooooooooooooooooooooX..oo.ooooooooooooo...oooooX.ooo..oooo...ooooooo..oo",
"ooooooo.ooooooooXooooXoooXoooooooooooooo..Xooooooooooo..:&ooooooooooooooooooooooooooooo.oooooooo..XoXX.X.oooXooo....o2+Xoooooooo",
"oooooooooooooooo.ooooooooooooooooXooooXXk=oooo.oo.ooo...2=ooooooooooooooX.oooooooooooX..oooooooo.XoXXVX..Xoooooo....o5+...X..ooo",
"ooo.ooXoooooo.oo.oooooXoooooo.oo.oooooo.z:oooooooooooX++ooooooooooooooooooooooooooo...oooo..ooooX.X..C..oooooooo...++ooooooooooo",
"oooXo..o.oooooooooooooooooXooooo.Xoo.o....ooo.oooXoooX++ooooooooooooooooooooooooooo...X.oooXoooooX......oo.ooo.o..o+oooooooooooo",
"o..ooooooooooooooXoooooooooo..ooooooo.o.oo&+oo..oooooooooooooooooooo.Xoo.ooo..oooooo...Xoooooooooo.....&oooooo..Xooooooooooooooo",
"ooooooooooo.o..ooooooooooooooXoooooooXoooo@o....oXoooXoooooooooooooo.ooooooo.ooooooo....oooooooooooX..o+.oo+.o..oooooooXoooooooo",
"oX.oooooooo.o+@ooooooooooooooooo.ooo..  oooooo+so......Xooooooooo...X.oo..&@oooooooo....ooooooooo.Xooooo..o;5...oooXoooooooooooo",
"oo.oo.o.oooo.o+25ooooooooog.ooooX.o.... ooooo..=ooo...X.oooooooo....oXoo....i;.ooooo..=a..ooooooo.oooooo..o@&o..ooooooooXooooo..",
"oooooXooooo.ooo@@.oooooooo=ooooo.XX..X.V2.ooo...oooo..oooooooooo....o.Xo...o*..ooo.....*.X.oooooooooZ@ooooooooo+oooooooooooooo..",
"&+oooo.ooo.Xoooooooooooooooooooo.X.X...&+..oo...oooo...oooooo;oo....o.oo..oo..ooooo...oo..Xooooooooo=oooooooooo.oooooooooo=ooX..",
".ooooooooooooooX.oooooooooooooo+..oooooooooooooooo...ooooooooooooooooooo..ooooo...XoooXX..oooooooooooooooooooo..oooooooooo+ooooo",
"oooooooooooooooo.ooooooooooooo=f.ooooooooooooooo..o..oo.oooooooo.ooooooo..oooo..oooooooo...5iooooooooooooooooo..ooXXXXoooooooooo",
"oooooooooooooooooooooooooooo.....oooooooooooooo..........Xoooooo..oooooo+ooo....ooooo..oo..oooooooooooooooooo...oooo.Xoooooooooo",
"oooooooooooooooo..ooooooooooo....ooooooooooooooo@4....++.ooooooooXoooooooooo....ooooo.ooo.oooooooooooooooooo.=<.ooo@oooooooooooo",
"oooooooooooooooo.ooooooo.o=o.oooooooooooooooooo.......52XooooXooooooooooooooXooooooooo+&ooo.XX.o....ooooooooooooooos=ooo...ooooo",
"oooooooooooooooo.ooooooo..g...oooo.oooXooooooooo.+........ooo..ooooooooooooo.Xoooooooo&a.o.....X....o.oooooooooooooooooo...ooooo",
"oooooooooooooooooooooo.....+oooo.o..oooooXoooooo........o.ooooooooo.oooo..oo.ooooooooooo....oooX..oooooooooooooooooooo....oooooo",
"oooooooo+5oooooooooo.......ooooo..o.Xoooooooooo.........oooooooooX..o&2ooXX..oooooooooo.....ooo+o.ooo.ooooooooooooooooXX..oooooo"
};
