/* XPM */
static char *floor-128[] = {
/* columns rows colors chars-per-pixel */
"128 128 55 1",
"  c #161227",
". c #171329",
"X c #181227",
"o c #181329",
"O c #1C182F",
"+ c #1E1A31",
"@ c #1F2038",
"# c #221D2F",
"$ c #211D34",
"% c #242037",
"& c #26233A",
"* c #29253B",
"= c #2C283E",
"- c #2E2C42",
"; c #2E3045",
": c #312E45",
"> c #333146",
", c #353349",
"< c #39364D",
"1 c #3B384E",
"2 c #3D3B52",
"3 c #3F4157",
"4 c #413E54",
"5 c #444155",
"6 c #45445A",
"7 c #49465C",
"8 c #4A495F",
"9 c #4D4C62",
"0 c #514E64",
"q c #555167",
"w c #545369",
"e c #5A576D",
"r c #5B596E",
"t c #5C5C71",
"y c #5F6075",
"u c #615E6D",
"i c #605E74",
"p c #626076",
"a c #646278",
"s c #68667C",
"d c #6C697D",
"f c #73707F",
"g c #6C6D83",
"h c #726F85",
"j c #747389",
"k c #77798E",
"l c #79768C",
"z c #7A798D",
"x c #7D7D92",
"c c #827E94",
"v c #86818F",
"b c #9693A9",
"n c #9C99AF",
"m c #A19DAC",
"M c #A5A3B8",
/* pixels */
"ooooooooooooooooooooooo..o....$:ooooooo.oooooooooooo....ooooXooooooooooooooooo.ooooooo.oo..&&..ooooooooooooo....ooo.oooooooooooo",
"ooooooooooooooo oooooo  oo......oooo..o.ooooooooO:......ooooooooXoooooo.oooooooooooooo.......o.oooooooooooo.o$&.ooo.oooooooooooo",
"oooooo ooo..ooooooo oooo.....o..oooo....ooooooooo&oo..,-oooooooooooooooooooo.ooooooooo...o..ooooooooooooooooo+$oooo4%o.ooooo.ooo",
"oooooooooo..ooooo...oooo..0..ooooooo....oooooooo.o....$$oooooooooooooo..oo.ooooooooooo@3.o..ooooooooooooooooo.ooooo&.ooooooooooo",
"oooooooo....o oooooooooooo*.....ooooooooooooooooo..o.ooooooo..oooXoooo..oooooX.ooooo..o$..o.oooooooooooooooooooooo...ooooooooooo",
"oooooooo....oooooo..oooo...o....oooooooooooooooooooooooooooo..oooooooo..ooo.oooooooo.oo...oooooooooooooooooooooooo..oooooooooooo",
"o oooooo+xooooooo ..oooooo.ooo..o.+$ooooooooooooooo...o.ooooXoXooo.oo<goooX.ooo.oooo.o.o.oooo..$Ooooooooooooooooo......oooo.oo.o",
"oooooooo.+oooooooo..oooooooooo..oooooooooooooooooo+$o.o.oXoooo..ooooo..oooooooooooooooooooooo..oooooooooooooooo+$...o.ooX.oooooo",
"oooooooo oooooooooooooooooooo.oooooooooX.XooooXoooo..o.$$...oo..ooooooooooooooooooooo.ooooo.o.o.ooooX.oooooooo.ooooo&.oo.oX.oo.o",
"oooooooooooooooooXooooooooooooooXoooooooooooo..ooooooo....oooX..ooooooooooooooXoooooooo.oooooooooooooo.ooooooooooooo..oooooooooo",
"ooooooooo oooooooooooooooo.oooooo.ooooooooo.ooooooooo.ooOo......oooooooooooooo.o.oooooooooooooo.oooooo.ooo.X.oooooooo$oooooo.Xoo",
"oooooooooooooooooooooooooooooooooooXooooo.o.Xooooooooooo3:.....oooooooooooooooooooooooX.ooooooooooooooooooo.X.oooooo.9+.oo.o.ooo",
"ooooooooooooooooooooooooooooooooooo.o.oooX.ooooooooooooo....o..oooooooooooooo.ooo.ooooo..ooooooooooX.ooooo.ooooooooo....oooooooo",
" oooooooooooooooooooooooooooooooo.oooooooooooo.ooooooooo...ooooooooooooooooooo.Xooooooooooooo.oooXooooo..oooooooooooo...oooooooo",
"ooooooooooooo&:oooXoooooooooooooXoooX.ooXoo.oo.ooooooooo....ooo.oooooooooo-&oooooooooooooooooooooooo.ooXoX.oooooooooX.oo.oo..ooo",
"oooooooooooo.-7oooooooooooooooooo.ooooo..ooooooooooooooo....oo..oooooooooo4,ooooooo.oooooo.ooooo.oo...ooooooX..ooooooooooo..o.X.",
"X9-oX...oo+$..o.oooooo ooooooooooooooooo+o...oooooooooooooooooeOooooooo+%oooooooooooooooooooo.ooooooo+oooooo.oooooooX..ooo+eXooo",
".q:o....ooO*..o.oooooooooooooooooooooooo+O.o..ooooooooo oooooogOooooooo$&.oooooooooooooooooooo.oooo.o$ooooo.ooooooooooooooog.ooo",
"X.oo.X..oo......oooooooooooooo o.......oo.....oooo ooooooooooo.ooooooooo....ooooooooooooo.ooooo.o...o.ooooooooooXoooooooo..oooXo",
"..X.oo..oo......  oXoooooooooooo.o..o.ooooo....oooooooooooooooooooooooooo...ooooooooooooooooo.o..o....oo.Xoooooo.oooooo.oo..oooo",
".X..o...ooooooo-:.oooooooooooooo..$&..e4oooooooo ooooooooooo...ooo.ooooXooo.<&ooooooooooooooooo-$ool$ooo.oooooo..ooooooo.Xoooooo",
"...Xoo..ooo.ooo$$oooooooooo ooooOo++. 4&oooooooooooooooooooooo..oooooooooooo&+ooooooooooooooooo@.oo6o.oooooooooooo.Xooo.o.oooooo",
"X.X.ooo.ooooooooOooooooooooooooooooo....ooooooooo oooooooo o.ooooooooooooooooooooooooooooooooooooooo.oooo.oooooooooooooXooooo.oX",
"oX.Xooooooooooo ooooooooooooooooooooo.ooooooooooooooooooooooooooooXooooooooooooooooooooooooooooooooo.ooooXo.o.ooooo..oooooooooo.",
"oooo...XoooooooXoooooooooooooooooooo.oooo.ooooooooooooooooooo.ooo.oo.oooooo.o.Xooooooooooooooooooooooooo..oooooooooooo.ooooooooo",
"oooo..oo oooooooooooo.ooooo oo.ooooooooo.Ooooooooooooooooooooooo.XooooooX.oooo.oo.oo.o.ooo.ooooooooo..O....ooooooooooooo.ooooooo",
"ooooX.ooooooooooo..oo.oooooo......oooooo.h*o.oooooo oo oooooooo.ooooooXoooooooo.oooo..ooooooooooooo..Ox..oooooooo.oooooooooooooo",
"ooooo.oooooooooooo...O.. oXXO$9...ooooo..+.ooooooooooooo.ooo.oooX.oooo.oooooooooooOo.ooooo,2oooooooo..O..ooooo.oooo.o..oooooXoo.",
"O...ooooooooooooooo..g-..o......O$.ooooo....ooooooooooo++.oo$o...oooooo..XX.oooooOxO..ooooooO$+ooooo....oooooooooo.o&O.oo+....oo",
"4...ooooooooooooooo.. ..o....O..oooooooo....ooo+o.oooo..o.o.h%o..oooooooo.oooo.X....o.oooooooo..oo.o....oooOOoooooooo..o+x.....o",
"o$O.XXooooooo .ooooooooooo..O$..oooooooo....ooO,oooooo.ooo....$.oooo.oooooo.oooooooo.oooo$$ooooooo.o....ooo@=ooooooooo.....+.XX.",
".-$.X..ooooooooooooooooooo......oooooooo....oooo.o..Xoooooo...,o.o.oX.ooooooo.ooo.ooooo.oooooooooo......ooooooooooooo.....+:.XXX",
"ooo.ooooooooooooooooooo.ooooooo.oooooooooooooooo..oo.ooooooooo .ooX.oo.......oooXoooo.Xooo.Xoooooooooooooooooooo.ooooo.ooooooooo",
"oooooooooooooooX.oX.oo.Xoooooooooooooooooooooo....oooooooooooo.oooo.oooo....oooo.oo.oo.ooo.o.oooo..ooooooooooooooooooo..ooooo..o",
"..o.oooooooooooooooo.oooooooooooooX.oooooooo......ooooo.ooooooooooooXooX..oooooooooooooooooooooooooooo.ooooo...ooooooooooooooooo",
"....ooooooooooooooo.ooooo.X.o.ooooo.oooooooo......oooo..oooooooooooooooo..oooooo.o.XooooXoooooo.oooooooooooo....ooooooooo.oooo.o",
"..oooooooooooooooooXo.oooooo.ooooooooooooooo..o+7.oo..ooo oooooooooo..oo.ooXooo.ooX.ooXo.ooo...oo.ooo.oo..oo-<.oo.oooooooooooooo",
"o.oooooooooooooXo.o.ooooooooooo...ooooooo.oo..oO6 o.oOOooooooo ooXooXooo......oooooooo...o.X....oX.oooo...oo=<oooo$oooooooooooo.",
"oooooooooooooooo..ooooooooooooo.-6oooooooo.oooo. .oooOooooooooooooooooo.oooo..oo.Xooooooo..X.4,oooooo.........oooo+o.ooo.ooooooo",
"ooooooooooooooo ...ooooo.oX.oo.o@:ooooooo...ooo.ooooo.ooooooooooooooooo.Xooo...oooo...Xoo....:*oo.ooo.........oooo..oooooo.ooooo",
"ooooooooooooo oo:-oooo.ooooooooooooo.ooo..gO..o.ooooooooooo.oooooooooXoooooo.2$ooooo.o.oooo.X.ooo.o.oo+g ...oooo..ooXoooooooo.oo",
"oooooooo ooooooo++.o.ooooooooooooooooooooo:O.,o.ooooooooooo.ooooXoooooooooooo@OoooooXoooooooo.ooo.ooooo, o:.oooooXoo.ooo.XooX.oo",
"oooooooooooooooooooooooooooooooooo+$ooooooooo$oooooooooooo .oo.ooooooooooooooooooX.oooooooooo.o%.ooooooo.O+.ooooooooooo.o.ooo.oo",
"oooooooooooooo ooooooooooooooooooooooooooo.oooooooooooo oooooooooooooooooooooooo.ooooooXo.ooo.oo.ooooooo....ooooooooo.ooooooXooo",
"oooooooo.O..o.oooooooooooooo...oooooooooooooooooooo ooooooooooooooo.oooo..oooooXooooooXooooooooooooooooo..oooooooo.ooX.ooooo.ooo",
" ooo.ooo$Moo O$ ooooooXooooo..oooo.ooooooooooooooooooooooooooo.oooooo6coo.$+oooooooXoooooooooooooooooooo..oooooooo.Xo.oooooooooo",
"oooooo...O.o....oXoooooooooo.....ooooooooooooooooooooooooooooo.ooooo..O.XoooooooooooooooooOooooooooooooo.oooooooooooooooo.o.Xo.o",
" oooo.....oo....oooooooooooXo+,oo+$ooooooooooooooooooooooooooooooo......oooooooooooooooo.o&=Oo$Ooooooooo..oooooo.ooooooo.Xoo.ooo",
"oooooooo.ooooo..ooooooooooXX....ooooooooXXXXX.X.X.oooooo.....ooo.ooooooo.oooooX.oooX.oX.o.oo.oooooooooo.oooooooooooX...ooooo....",
"ooo ooooXoooo.Xoooo.XoooooXX...oooooooooXXXXX..XX.oooo.O$O..ooooooooo.ooooo.oo.ooo.ooooooo...oooooooooo.oooooo.oooo..@oooooo..o.",
"ooooooo o.ooXooooXo.oooooooo...ooooo..o.4#.......Xoo....<=ooo.ooooooX.oooooooooooo.Xoo.ooooo..ooooXoo4..o..ooooooo.o.7$.oooo.ooo",
"ooooooooooo..oooooooooX.o.oo..oooooo....c,oo....X..X..Oo. ooooooo..XooooX.oooooooo.oooooooooXooooooXXn....oooooooo....oooooooooo",
"XoooXooo.o.X..ooXooooooooooooooooooo...oXoooooooooXo..$Oooooooooooooo.oooooooX.ooooo..ooo.ooo.oooooX........oooooo.$o.oooooooooo",
".ooo.o.o..oo..oooooooooooooo.ooooooo...o..Oooooooo.o...X...oooooooooooo.oo..o.oooooo..ooooooooo.oXoXoo.+....o..ooo.o..oooooooooo",
"o..ooooo......oooooooooo.ooooooooooooo.oo.$ooooo..ooo.o...oooooooooooX.o.......oo.....oooX.oo.ooooooooo$oo....oooooo..oooooooooo",
"ooo.XoooX...XO+ooooooooXooooooooooooooooooooooO<..oooooo.oooooooo.X.oooo..+....oo.....oo.ooooXooooooooooooo$:o.ooooo..oooooooooo",
"o...ooo.oooooOO*-..oooo.oo4oooooooooooooooooo.O,....oo.ooooooooo.XooXooo..oO,@ooo.ooo.$<ooooooooooooo...oo.$-...oooooooooooooooo",
"X.ooooX.oo.Xoo.%&o.ooooX.o,.ooooooooooo7=oooo......Xoooooo.ooooooooo..oo....=$ooooooooO-ooooooooooooiO..oo......oooooooooooooooo",
"+OX.ooooooo.oooooooooooo.....o..ooooooo:$oooo..oooX.....oooo.$ooooo.oooo....oooooooooooo.o.oooooXooo4o..oooo....oooooooooo$ooooo",
"Oo.o..Xooooooooooooo.oo..ooo....oo ooooooooooooooX.X....oooo.Oo o.oooooo....ooooooo.ooooo.  oooooooo....oooo....oooooooooo+o.ooo",
"..ooooooX.o.ooX.ooo.oooX..oooo&6ooooooo oooooooooooooo...ooo...ooooooooooooooooooooooo..o..:,.oooo.o....ooooooooooooooooooX..ooo",
"...oooooooooooooooooooooooooooo@.oo.oooooooooooooooooo..ooooo...ooooooooooooooooooooo...o..+$ooooX.o..X.ooooooooooooooooooo..ooo",
".ooooo.o.oo.Xoooooooooooo.oooooooo .oooooooooooo$,.oo...ooooooo.oo.Xoooooooooooooooooo......ooooooooX..Xooooo&=o..oooooooooo..o.",
"ooooooX.oooX.oo.ooooooo...Oo.ooooo..oooooooooooooOo.o.<<.oooo.ooooo.oooooooooooooooooo.......oooooooo.X.oooo.oOo...9@.ooXoX.....",
"ooo.oooooooooooooooooooo..eoooo.oooooo.Xo.ooooooooooooo.ooooooooo.oo...o.ooooooo.ooX..&9....oooooooooooo.ooo..oooo.o...oo.oooooo",
"oooo.ooooooooooooooooooo..o..oooooooooo.oXooooooooooo...oooooooooo.X..ooooo.oo.ooooooo....o.ooooooooooooooooo.oooo......ooo.oo.o",
"oooooo.o.&ooooooooooooooO...ooooooooooooooo.ooooooooooXXoooooooo.ooo.o+.ooo.ooX.oo.Xoo..ooo.ooooo...oooooXoooX.oo...o...oooooooo",
"oooooo..Oloooooooooooooo..oooooooo+$ooooo.oooo.Xoooo....oXoXoooooooo -g..ooXooooooooooooooooooo$o...ooooooooooooo...oo..oooooooo",
".oooo.......oooooooooooo...o.X.ooooo.oooo.oo.ooooo+$oo.OoooooooXooooo...ooXoooooooo.o.o.ooooo...ooooooooooooooo+$.ooo+..oooooooo",
"ooooo.......oooooooooooo..oooooooooooooooXooo.oooooooo.++.ooooooooooo...o..oo.XooooooooXooooooo.oooooooooooooooo...o&o..ooooo.oo",
"o.oooo...oooooooooooooooooooooooooooX.ooo.o.oXoooooooooo.ooooo..ooooooooooooo..oooXoooooooo.oooooooooooooooooooo..o.....oooooooo",
"oX.ooo.ooo.ooooooooooooooo.oooooooooo.oooXoooooooooooooo@+..oX.oX..oooooooooooooo..ooooooooooooooooooooooooooooo..oo.-..oooooooo",
"oooooooo.oooooooooooooooooo.oo..oooooooooooooo..oooooooo:=ooooooXoooooooooooooo.oooooo.ooooooooooooooooooo.o.oooooo..2.ooooooooo",
"oo.ooooooooooooooooooooo.ooXooXooooooooo.oooXoXoooooo.ooooooooooooooooooooo...oo..oo.ooooooooooooooooooooooooooooooo.ooooooooooo",
"oooXoo.Xooooo...oooooooooooo.ooooooo..ooooo..oooooooo.oooooXo..oo.ooooooooo..ooooXoooooooooooooooooooooooooooooooooooooooooooooo",
"o.o.ooo.o...o-3.oooooooXooo.oooooooo...oooo..oooooooooooooo....XooooXooooo<,ooooooooX.oooooooooooooooooo.ooooooooooooooooooooooo",
". ooo.ooo....&,...oooooooooXo.ooooooooo.......ooooooooooooo..XoXooooXooo..,*o.ooooooooooooooooooooooooooooooooo.ooooooXooooooooo",
".g<oooXoooO-...ooXooooooooo.oooooooooooo$O...ooooooooooooXooXXcOooooXo.$&.....oo.X.oooooooooooooooooo$ooooooooooo.oooooooo&lXooo",
".,$o.o.oo..$..ooo.oooooooo.XooooooooooooOo....ooooo.oo.o..oo.X6Oo.oooo.+$.o.oooo.ooooooooooo..oooooooO..ooooooooo.ooooooooO4.ooo",
"XXooooooo.....oooo.ooooXo.ooooXoooooooXo......ooo.oooooo...ooXo..Xooo....ooo.o...ooooooooooo...oooooooo.ooo..oooooooooooooXo.ooo",
"Xooo.oooooooooo.......oooooooooooooo..oooooooooooX.oooooo.oooooXoo.oooo.oo........oooooooX.oo.oooooooooooooooooooooooooo.ooooooX",
"ooooXoo.ooooo.o:<...oooooooooooooo*=..x6oooooooooo.ooooooooo.oooooXooooooooo6&.oo.ooooooooo.ooo,%oon%ooooooooooooo.oo.oooooooo..",
"ooo.oooooo.o..o.+.oooooooooooooo.ooO..+.oooooooooo.ooo.o.oX..oooooooo.ooooo.+..oooooooooooooooo.ooo%oooooooooooooooooXooo.o.oooo",
"oo.Xoo.oooX.o.o.oooooooooooooooo....o.ooooooooooooooooX.ooooXoooooo.oXoooooo.ooooooooooooo.oo.oooooooooooooooooooooo.ooooXoooooo",
"oo.ooooooooooooooooooooooooooooo..oooooooo..ooooooXooooooooooo.o.X.o.oooooo..ooooooooooooooooooooooo...ooooooooooooX.oooo.oooX.o",
"oo.Xooooooooooooooooooo.oooooooo...oooooo.oooooooo.oooooooooooo.ooooooooooooo.Xooooooooooooooooooooo..ooooooooooo.oooooooXoo.ooo",
".ooooo..oooooooooooooo..oooooooo...ooo.oo&o.ooooo.oo.ooooooooooXooooo.oo.ooooooooooooooooooooooooooo..&oooooooooooooooooo.oooooo",
"oooooooXoooooooooo...o..ooooo.&o....oooO.g&ooooooooooo.oooooX.o..ooooX.oX.oooooooooooooooo++oo.ooooo.ojooooXoooooo.ooo.oooooo.oo",
".oooooXooooooooooo...=+.oooo.@6ooooooooooooooooo..ooooooo.oooo..ooooooo.ooooooo.o.,.......-,.o+ooooooooooooooooooooo+.oooo......",
"&oooooooooooooooo....e*..ooo...o+$oooooooo..oooo..ooo.o++.oo,Oo.ooXooo.Xoooo.Xooo.gO.......o.++ooooooooo..o.oooooooo%oooo<......",
",.ooooooooooooooX.o.....ooo..+oooooooooooooo...&..ooooooooooe$..oo.ooo.oo..ooooo......oo..o.o.oooooooooo....$oooooooooooOg ..o.X",
".@o.oooooooooooooooo....oo...$ooooooooooooooo.o-Oooooooooooooo&O.oo.ooo.oXooo.oo.....ooo.O$..ooooooooooo...$&ooooooooooooo.&ooo.",
".*+.oooooooooooooooo.Xooooooooooooooooooooooooooooo.ooooooooX.=ooooooXoXoo.ooooo......o...ooooooooooooooooooooooooooooooooo*.ooo",
"....ooooooooooooo.ooooooooo.oooooooooooooooo.ooo..oo.oo.oooooooo.oo.o.oo.oo.oooo.....Xooooooooooooooooooooo.oooooooooooooooo.o.o",
"....oooooooooooo.Xoo.ooooooooooooooooooooooooooo......ooooooooo.Xoooo.oooooXooo......X.oooooooooooo.oo.oooooooooooooo.oo.oo.oooo",
"....Xooooooooooooooooo.ooooooooooooooooooooooo.o......oooooooooo.ooooooooooooo.X....X.ooooooooooo.oooooooooooooooooooooooooooooo",
".oooooooooooooooo.X.oooo.ooooooooooooo..oooooo.o.o......o.Xooooooooooooooo.o....o.Xooooo.o..oooooooooo.oooo.....o...oooooooo.ooo",
"ooooooooo.o.oooooooooooooooooo.....ooo..ooooo..$g.......oo.oooooooooooooooo.....oo.oo.Xoooo.o...oooooooooo..<7..oo..oooooooooooo",
"oooooooooXoooooo.oooooooooo.oo.oo.o.oo..oooooo.O= ...$O.ooooooo.oooooooooo......ooooooo.oo......ooooooooo..o@=....$Ooooooooooooo",
"oooooooooo.oX..ooooo.oooooooooo.<eo.oo..oooo...o.....oooooooo.oXoooooooooo......ooooo.oooo...q4ooo.o.ooooooo........oooooooooo.o",
"oooooooo.ooooo.o......ooooXo.o..+$..ooooo.oooooo..oo.o..ooXooooooooooooooooo......X..oooooo.o$+ooooooooo.oo...o...oooooo.Xoooooo",
"ooooooooX.ooXo.o,,..oooo.o.oooo.ooo.oooo.oj$oooo...oo.ooooooXooooooooooooooo.7&....oX.oooooooooo.ooooo$l.....ooX..ooooooooooooo.",
"oooooooooooo..Xo.O..oooooooooooooooooooo..$.O<oo..oooooooooooooooooXoooooooo.o..oooooooo.oooooooooooooo+o$,..Xo.oooooooo.ooooooo",
"oooooooooooooooo....ooo.ooo.oooooo$+ooo...oo.ooo..o.oooooooooooooooooooooooo...oooooooooooooooo%O.ooo.ooooo.o.oooooooooooo.ooo.X",
"oooooo.X.ooo..oo..ooooooooooX.X.o...ooo.Xoo..X......oooooooooooooooooooo...oo.oooXoX.ooo.ooooooo.oo.oo.oooo....ooooo....oooooooo",
"ooooooo.o-oo..o..ooooo.ooooooXXo..oooooo.ooo.ooo..ooo.ooooooooooooooo+&o.o.Ooooo...ooooo.oooXooooooooooooooooooooooo....ooooo..X",
"oooooooo+b.o.O$.oo.oooooo.X.ooo.o..ooooo.oX...ooooooooooooooooooooooo4jooo++.oooooooXo.o..ooooooooooXoooooooX.oooooooo..o.Xoo.oo",
"oooooooooooo....ooooooooX.XXoo$..Ooooooo.oooooo.ooo..XooooooooooooXooooooooooooooooo.ooo...+ooOooooooooooooo.ooooooooo..oo.ooooo",
"oooooooo.oo.oo.oo.oooo.oooooo+:.oO$oooooooX.oooooooo.oooooooooooooooo.oooo...oooo.ooo.ooo.&&.o$o.oooooooooo.oooooooo....ooo.oooX",
"Xooooooooooooooooooooooooooo...oooXoXoooooooooooooooooo.o.oooooooooooooo.XooXoo.Xooooooooo.ooooooooooooooooooooooooo....oooXooo.",
"ooooXoooooooo.oo.oooooo.oooo...oooooooooXX.oooooooooooo.*$oooooo.ooooooooooo.ooo.ooo.Xooooooooooooooo XX.oooooXooooo.:.oooo.oo.o",
"ooooooooooooooooooooooooooooooooooooooXXe*.ooooo.oooo...:&oooooooo.ooooooo.ooooooooo.ooooooooo.oooooXgoXooX.oo..oooX.<+oo.oooooo",
"X.oooooooooooooooooooooooooo..oooX.oo...e=ooooooooooXXOOooo.ooooooooooooooooooo.ooooooo.oooooooo..X.Xh.oooooooo.ooX+...ooooooooo",
".oooXoooooo.oooooo.XoooooooooXoooooooo..oooooooooooooXOOooo.ooooooo.o..oooo.oooooooooooooo.Xoooo.X....oooooooo..ooo+oo..o..ooooo",
"oooo.oo.ooooooooooo.oooooooooooo.oo.ooo...%OooooooXooo..oooooooooooooX.oooo..ooooXoo.X.ooooooooo..ooX.o$oooooo..oooooooooooooooo",
"ooooo.oo.oooo.oooooooooo.ooooo.ooooXoooX..+ooooooooooo.oooooooooooooooooo....o.Xooooooooooo.oooooXoooo.Ooooooo..oooo.X.ooooooooo",
"oo.oooooooooo+$o.ooooooooooooooo..X...  ....o.+7oooooooooo..ooooo.oooooo.o$+oooooooo....oooooooooo......ooo=<...oooooooooooooooo",
"ooooo.X.oooooo.:,.oooooooo0oooooX..X..  oo..o.o&ooooo.Xoooooooooooo.oooo..oo4&.oXooo.O@6.oooooooooX....ooo.+&...oooooooooooooooo",
"ooX.oooooo..ooo++ooooooooo&ooooo.X....og:...o...ooooooooo.ooooooooooo.Xo....$O..oooo..o@.X.o.oooooool+oooooo...ooooooooooooooooo",
"%ooooooooooooooooooooooooo.ooooo......o&O...oo..ooooo.Xoooooo*oooooooo.o......ooooo.....X..oooooooo.&oooooo..oooooooXooooo&ooooo",
"oooooooooooooooXooooo...oooooooO.ooooooo...ooooooo...ooooooo.ooooooooooo..ooooooXoooooXX..ooooo.ooo...oooo.ooo.oooooooooooOooooo",
"o.ooooooooooooooooooo...oooooo&9.ooooooo.ooo.ooo....ooo..X.ooooooooooooo..ooooooooooooooo..<4ooXooo...oooooo....oooXXXoooooooooo",
"oooooooooooooooooooooooooooo....ooooooooooooooo.o.......oooooooooooooooo...oooooooooooooo..ooXooooooooooooo.ooooooooXooooooooooo",
"oooooooooooooooooo.ooooooooo....oooooooooooooooo+,..o.++oo.ooooooooooooo..ooooooooooo.ooo.oooooooo.oo.oooooo.%:oooo+o.oooooooooo",
"oooooooo.ooooo.ooooooooooo&o....oooooooooooo.oo....oo.,:.oo.Xooooo..ooooooooooooooooooo$.ooXXooo....ooooooooo.o.oX.7&ooooooooooo",
"oooooooo.ooooooooooooooooo0+....oooooooooooooooo...oo...oooX.oo.oo..oooooooooooooooooO@6.oXoXXoo....oo.o.ooo.o.oooooo.oooooooooo",
"ooooooooo.ooooooooooooooo.oooo..oooooooooooooo.....ooo..oooooooooo..oooooooooooooooooo..oooooooo.o...ooooooooooooooooooooooooooo",
"ooooooooo<.ooooooooooooooooooo..ooooooooooooooo...oooo...Xoo.oooo...o$:ooooooooooooooooooooooooOo....ooooooooooooooooooooooooooo"
};
