/* XPM */
static char *floor-32[] = {
/* columns rows colors chars-per-pixel */
"32 32 43 1",
"  c #171228",
". c #171229",
"X c #171328",
"o c #171329",
"O c #181228",
"+ c #181229",
"@ c #181328",
"# c #181329",
"$ c #191329",
"% c #18132A",
"& c #19132A",
"* c #18142A",
"= c #19142A",
"- c #19142B",
"; c #19152B",
": c #1A152B",
"> c #1A152C",
", c #1A162C",
"< c #1A172D",
"1 c #1B162C",
"2 c #1B162D",
"3 c #1B172D",
"4 c #1B172E",
"5 c #1C172D",
"6 c #1C172E",
"7 c #1B182E",
"8 c #1D182D",
"9 c #1C182E",
"0 c #1D182E",
"q c #1D192F",
"w c #1E1A2F",
"e c #1E1A30",
"r c #1E1A31",
"t c #1F1A30",
"y c #1F1A31",
"u c #1F1C32",
"i c #201C32",
"p c #211D33",
"a c #221D33",
"s c #231E33",
"d c #231F33",
"f c #211D34",
"g c #221D34",
/* pixels */
"++....2;.O.O;7O......2%%..O;2%..",
"+.t+.+;.%%.%%%OO.t...%.%...%%...",
"+.++......O.O%7O......OO....%7..",
".++t+.......OO%OO%t.O.OO....O%..",
"a+;..+++%%%.OO%a.%%%..OO.%O.O.aO",
"+++;;+++;a..OOOO.O.7..O;a%..OOO.",
"+++O+;+7%O7%O.OO...O%%7O.tO..%..",
"7+++O7.;%%%;O%%a....7%;;..%;.%aO",
";OOO+++++;OO%O        %%..%%OOOO",
"OO..+++.7;O;7%         7..%7%%.O",
"OO..7+++;O7;OOOO   7  %%%77.O.O.",
"OOa;+++;;OO;OOOO a%%  ;%O.......",
"OO....+.OOaOOO;;      %  a%%%7OO",
".O....++OO;;O;OO  %      %%%%OOO",
";OO;;.7.O7;;OOO;  %7 7 % w%%O%%.",
"OOOO..+7OOOO;7OO     %%; %%;;%..",
"OOw ..7O;        w% .7.%..O.%%%O",
"O%% .OOOO   %%;%    O.O...O%%%.O",
"OO%7O.OOOO    ; OO7O..OO.%O.%%..",
"a.;;..OO  ;   OaO;7 OOO%.%OO%%uO",
"O.O;;  O;u%OOOO OO%7OOO;u%OO OOO",
"....%; ;%%7OOO OOO.OOO%.%7O%%OOO",
"7...O7O7; ;; ; uOOO.7.7%%%%%%%u.",
"%O..OOOOO  %   ;OOO.%%%OO%OOO%%.",
"..OOOOO.7% ;7;        %7OO%7;OOO",
"O.OO7O..; w; %     7 %%%%7;.%%.O",
"..a%..O%%        a%   %%%OOOOOO%",
"..%OO.%%% 7% %7 O%%   %%%7OOO7OO",
"O.O%.OOOO%7%%%OOO   %OOO%7.%%%OO",
";.O;;%7.O7%7OOO%OO%7 7OO%t%2OO%O",
"OO%OO..7  OO%% %%%%O  %%%OO%%O%O",
"OO;...7.%.OO%7OOO% O%7%O%OO%;%OO"
};
