/* XPM */
static char *player-128[] = {
/* columns rows colors chars-per-pixel */
"128 128 74 1",
"  c #010000",
". c #070708",
"X c #080203",
"o c #090909",
"O c #171227",
"+ c #171329",
"@ c #181227",
"# c #181329",
"$ c #1D192F",
"% c #1E1B31",
"& c #22192E",
"* c #221D34",
"= c #242137",
"- c #262339",
"; c #29253B",
": c #2C283E",
"> c #2E2B42",
", c #2E3045",
"< c #312E44",
"1 c #333147",
"2 c #353349",
"3 c #39364D",
"4 c #3B384E",
"5 c #3D3B52",
"6 c #413E54",
"7 c #434156",
"8 c #45445A",
"9 c #49465C",
"0 c #4A495E",
"q c #4C4C62",
"w c #504E64",
"e c #535167",
"r c #545369",
"t c #5A566D",
"y c #5B596E",
"u c #5D5D72",
"i c #615E6D",
"p c #605E74",
"a c #626076",
"s c #646278",
"d c #69667C",
"f c #6C697E",
"g c #73707F",
"h c #3C4EAF",
"j c #3E4FB2",
"k c #3F51B5",
"l c #4355B6",
"z c #4758B8",
"x c #495AB9",
"c c #6D6D82",
"v c #726F85",
"b c #757389",
"n c #77798E",
"m c #79768C",
"M c #7B7A8E",
"N c #7E7D93",
"B c #E43E32",
"V c #E83F33",
"C c #EC4134",
"Z c #ED463A",
"A c #F34235",
"S c #F4473A",
"D c #F4483C",
"F c #F44D41",
"G c #9794A8",
"H c #9C99AE",
"J c #A09CAC",
"K c #A6A3B8",
"L c #F6F6F6",
"P c #F7F7F8",
"I c #F7F8FC",
"U c #FDF5F4",
"Y c #F8F7F8",
"T c #FEFEFE",
/* pixels */
"#############+##########++###+%<+###########+++###++++++####O#O###############+###@###+++++-;++#############++#++++$####++######",
"#######O++######O#######++###++#########+###++++$>+$++++############+####+######+#+##+++++++#++###+####+#####*-+++######++######",
"########++++##########++####+#++######+######+##$*##+$<>###O#####O####++###+#+########++##++#+##+#########+@#%%+###6*###+++#####",
"########++++#######O##@###w####+###########+###+####++**###############+####+######+##=6#+++########+#####+##$++###-###+++######",
"######O#++++######++++####;#######+###########+#####+++O#####O########++####++++####++$*+#++++++#########+##+@+####++#+@########",
"########++++####+#++#@##+#+++###########+##+##+#####++++##############++####++++####++++++++++++++##########+######+############",
"########%N######++++#++#####+#####**##############+#+++############OO4p#####@+++#+##+++++###+++=$+@+##+#@++###++#+#@+++#########",
"#########%O#####++++##@#####################+####+$*+++###############%####@++++######@#####+++##++############*%#++############",
"########O#O########@++++####+###############++++#####++**+++#O########+######+@########+##+@#+++#+#@##########+#####=###########",
"O##################+++++##############@+###@++++######+#++#+##########@+#####+####+#+@####+########+#+#+@++#######+#############",
"####O#############+@++#+#+#####+@######+##++++++#####+##%#++#####+####++#############################@###############*+####@####",
"###########O######++++##########+++####+##@+++##########5>++####++####+#########++@##+###+#######+##+###++@#++@######q%+#######@",
"O#########+######++@##################++#@######+######O            +########+@##+###+#+##@+####@+##+#+####@++######+++++#######",
"########O#++#####+#########+#+#######@++++####+######+#O            #######$++#########@##+####+###+@#+@#############+++########",
"###########++*1#####O####+######+@#####################O            ######>*######+################++#####+####+#####@#####++###",
"###########++<9###############+#++###########+####+####O            ######63#####+@####+####+###+##@++##@+####@+######+###++##+@",
"@q>#####OO$;O###+###++++@#++@###+++####+%+++#+#########O    OOy$    O##%%+++++++++++++++#############%##################+#$t++@+",
"#e<##O##OO$;++##+@##++@+##+#####+++#####*$++#######O####    O#f%    OO#*>#++##+++++++++++####+#+###+#%##############+@####$c++@+",
"@#O#####+++#++######++++####++##++++++++#+++##+########O    O###    O###+###+##++###@+++#######++#++#################+###++#+#+@",
"########++##++######++++####@###++++#++#++++###########O    ####    #######+##$++####@++###+#+#+++++#+#########+##########++#+@+",
"##@O####++#####>1######+#########$=-##u5####+##########O   .LYTT    O#OO####4-##+###########+#+>%+#m*#################+#########",
"###+####++#####**################+%%##4:+########O#####O   .PTTT    O#######-%##+###########+++*#++8$###########+##+#####+@+#+##",
"################$#######++##++##########++############OO   .PTTT    O###########+@#######+##+#####++#########+########@##+####@+",
"########################@+##@+########+++#####+#####OOOO   .PTTT    OOOO#############@++##########++##############@++#+#######+#",
"######@+##############+###############++#########O#O       .LTTT        O######O####+++++###############++####+######+######+###",
"######++#########+####################+++#+#########       .LTTT        ##########@++++++#++#####+##++$++++#####################",
"#++###+++@++#+@###++#++###+@+$####+####++b>########O       .LTTT        O########+##+++O++#$###+###+##N+++##################@##+",
"O+++###++@++++####+++$++##@@+*q###++###+#%#########O       oPTTT        OO#####O#+&#+++#+@16###+#####+%++###+#####+#+++#####+###",
"#+@+#+++++++#######++c>++++++$++%%+++++OO+++#######O    $OO$PTTTOOOO    O#########N#$O##++#$#**+++++##+++++#######++-$##+%++#++#",
"6+++@+++++++####+###+O+++++++#++##++#++##O++###%####    O##$PTTT###O    O####O##O$O++O#++####+++++++##+++++#$#####++++##%N#++++#",
"#*$+@@++++##+##+##########++$*++##########++###2###O    O##%PTTT###O    O#######+###$OO+#%*++##++#++++##+++-:+######+++++++%+@@#",
"+<*+@@##+##########+####+#++++++#########+++#######O    ###&PTTT####    ########++##OO++#++#######+++###++++++######++++++%<+@@#",
"+##+####+########O##############################+++#   .LTTTTTTTTTTP.   O###############################+++++++++#####++########",
"#+##++#######+@###########O#####################O#+#   XPTTTTTTTTTTL.   O#########################+####+##++++++#+####+++###+++#",
"++++##########+#################O###############OO##   .PTTTTTTTTTTL.   O########O##############+########+++++++############+###",
"++++#+####+####+######O#########################OO#O   .PTTTTTTTTTTL.   O###O##O#####O##############+######+##++#######+########",
"++########@##+####################+++##########%0O##   XPTTTTTTTTTTP.   O##############O################++++<3+#+#++############",
"#+###+##+#+###@#################OO++###########%8O##   .PTTTTTTTTTTP.   O###############O#####+###+###++++#+>3+###%#+#####@#####",
"#######+##+###+#############O##O>8++####O######O###O   .PTTTTTTTTTTP.   O##################O+61#####++#+++++++####%$############",
"##+###########++#########O######-,++####OOOOO##OOOOO   XTTTTTTTTTTTL.   OOOO#OO@OOOO###O###O#>:######++++++++++###+++###########",
"#+###########+#@>,+####################O               .PTTTTTTTTTTP.               ##################%cO+++####+######+########",
"#####+########++%%+####################@               XPTTTTTTTTTTL.               #############+#####2O#<+#+#####+#+#@#######@",
"########+@+###++#O################**###O               .PTTTTTTTTTTP.               ###O#######=$#########%########@############",
"###+###+##+#+#+########################O               .PTTTTTTTTTTP.               ############+########+#+######+######@######",
"#####+#+##++#+++####O##################O    ACAVX      .PTTTTTTTTTTL.       VAAV    O##########################+#+@+###+##+@###@",
"#+#####+*K##+$*@#O#####################O    AAAVX      .TTTTTTTTTTTL.       AAAVX   ######################+#####################",
"######++#%################OO#+##++####OO    AAAVX     X.PTTTTTTTTTTL.       AAACX   #O#####+########################+####+######",
"##+####+++################@O#%2#+%%OOOOO    AAAC    ..ooPTTTTTTTTTTTo...    AAACX   OOOO##-:##*$#############+###+##+@##########",
"#######+##############+##O@O                AAAC   .LLLLTTTTTTTTTTTTPLLLX   AAACX               ##########++++###+#++++++#######",
"##+#@+###########+####@###O@                AAACX   PTTTTTTTTTTTTTTTTTTP.   AAAVX               #######+###++++##@##+*++##+####+",
"+@+#+####@####@##@++#++####O                AAACX   TTTTTTTTTTTTTTTTTTTT.   AAACX               ####+6++##++++####+#+q%#+#######",
"######+@###################O                CSSCX  .PTTTTTTTTTTTTTTTTTTP.   ASSC                #####H#+#+++++####+#+++#####+###",
"++####@+####++++##+########O    ACAV       .TTTPljjkTTTTTTTUDSSSTTTTTTTIljjlITTL.      XCAAVX   ####@@++####++++##+*####+#######",
"#@####+##@###+++#+@###@+###O    AAAAX       PTTIlkklTTTTTTTTSAAATTTTTTTIljjkTTTL.      XCAAC    ###@@#+$####++##################",
"####@#######++++#+##+#+####O    AAAC       .TTTIlkklTTTTTTTTDAAATTTTTTTTljllTTTL.       AAACX   ###@##$*#+#+++++########++####+#",
"###++########$%+++#########O    AAACX       PPIPxlllTTTTTUTUDAAATTTUTTTIzlllIIPL.      XVAACX   #########++=<+++########+++#####",
"++++###++###+$$;:+########6#    AAAC        lllzIITITTTTDSSSAAAASSSFTTTTIIIIzlll.       AAAC    ####++++#++*<+++########++++####",
"@+#####@###+#++=-###+###+#2#    AAACX       kkklITTTTTTTSAAAAAAAAAADUTTTTTTIlkkh       XCAACX   ####t$++##++++++########++######",
"%$#@+######@####++##########    AAACX       kklzITTTTTTUSAAAAAAAAAADTTTTTTTTlkkh        CAACX   ####6#++##+#++++########+#=#+###",
"$##++@##+##+###@#######+###+    DSSZ        lllxITTTTTTTSAAADDDDAAADUTTTTTTTzlll        ZDSS    @+#+++++####+++++#######++%#+##+",
"++##@+#######@#############+.   TUTUX   ###$IIIITTTTTTTTSAADUTTUAAADUTTTTTTTPIIP$#OO   .UTUL.   +##+++++#####+##+#######++++++##",
"++##+##+@###++#############+    TTTL.   ####TTTTTTTTTTTUDAADUTTTAAADTTTTTTTTTTTP%###   XPTTL.   ####++#+######++#########+@+++##",
"+++####++#+##########+#####+    TTTP.   O###ITTTTTTTTTTTSAADTTTTAAADUTTTTTTTTTTP&##O   .PTTL.   #####+######+-:####+##+#######@+",
"++#+###@#################+#+    TTTP.   O###TTTTTTTTTTTTSAADUTTTAAADTTTTTTTTTTTP$##O   .PTTLo   ##############$++##9=+########+#",
"####++++##################t#    TTTP$##$PTTTTTTTTTTTTTTTTTTTTTTTTTTTTTTTTTTTTTTTTTTI##-ePTTP.   ################+##$++++#######+",
"####++++################++##    TTTP$##$ITTTTTTTTTTTTTTTTTTTTTTTTTTTTTTTTTTTTTTTTTTT$#+%YTTP.   #########O##########+++++##+####",
"######+++=############O##%##    TTTP&+#$TTTTTTTTTTTTTTTTTTTTTTTTTTTTTTTTTTTTTTTTTTTI$##$PTTP.   ####################+#++####+###",
"######++%n+#######O########O    TTTP=$&=PTTTTTTTTTTTUTTTTTTTTTTTTTTTUUTTTTTTTTTTTTTT*$&=ITTL.   ############O###+###++++########",
"#####OO++#+#####O###########    TTTTPPPPTTTTTTTTTTTTDDDFTTTTTTTTTTTTDSDFTTTTTTTTTTTTPPPPTTTP.   #O#############%%+##$+++########",
"######++###################O    TTTTTTTTTTTTTTTTTTTTSAASTTTTTTTTTTTTSAADUTTTTTTTTTTTTTTTTTTL.   ################+++#=$++######+#",
"#######O###################O    TTTTTTTTTTTTTTTTTTTTAAASTTTTTTTTTTTUDAASTTTTTTTTTTTTTTTTTTTP.   ##############O#++++++++########",
"################O##########O    TTTTTTTTTTTTLTLTUTTUSAAATTTTTTTTTTTTDAASUTTTPTIPTTTTTTTTTTTP.   ################+++++>++#####+##",
"######O######+#############O    TTTTTTTTTTTI*$#&ZSDDAAASTTTTTTTTTTTUDAAAASSS$$$=PTTTTTTTTTTL.   #O###################5$#########",
"#O#######+#####+#####O#####O    TTTTTTTTTTTT#@@&CAAAAAASUTTTTTTTTTTUDAAAAAAA@#O&PTTTTTTTTTTP.   ############O#######O###########",
"###O#O##+#++#+++###########O    TTTTTTTTTTTT$##@CAAAAAADTTTTTTTTTTTTDAAAAAAA##@$LTTTTTTTTTTL.   ####++++########################",
"########++++#>8+O##########O    TTTTTTTTTTIP#@#&CAAAAAASTTTTTTTTTTTTDAAAAAAA###$LYTTTTTTTTTL.   ####++++########################",
"########+++++-2OO##########O    TTTTTTTP%#$#   XVAAAAAADTTTTTTTTTTTTDAAAAAACX   #$$$TTTTTTTP.   ######++########O###############",
"#s4####O++%,++O#####O######O    TTTTTTTI:$##   XAAAAAAADUTTTTTTTTTTUDAAAAAAA    O#O#ITTTTTTP.   #O###*++##################*m####",
"#4*#####+++%++#############O    TTTTTTTP*###   XVAAAAAASTTTTTTTTTTTTSAAAAAAA    O+##TTTTTTTP.   #####%#O#################+$6O###",
"+O++O###++++++#####O#######O    TTTTPLPL#OOO   XVVVAVVASLLPPTTTTLLLUZCCCCCCC    O@##LLPPTTTL.   #######O########O########+##O###",
"++++####++#++##############O    TTTP-&$$    OOOO XXXXX XooooLTTT....X XX XXXOO#O    $%$=TTTL.   +O#+O##++#######################",
"++++####@+##+@#15+######O##O    TTTP$#M8    O#OO           oPTTT            7:+O    ##@$PTTP.   *O$H*###+###+##########O##O#####",
"++++##@+######$#%#####O####O    TTTP%#%#    O##O           .PTTT            $###    O##$YTTP.   $O#*$###@###++##O###############",
"@+++###+########+##########O    TTTP$#+O    ##OO           .PTTT            ####    O@@$PTTL.   +O#####+#####@###############O##",
"#+###+##++##########++++###O    TTTL.   #########O#####O   .LTTT    O#O#O#O########O   .PTTL.   ++++###+####+++@#######O########",
"@+##++##++##########++++#O#O    TTTL.   ###############O   .LTTT    O##############O   .PTTP.   ++++##++####++@+########O#######",
"####@###++########++++O+###O    TTTL.   #-#############O   .PTTT    O#######O######O   .LTTL.   #####+*##@##++##################",
"########++#########++++O###O    PPPL.   #d;####O##O#####   .LLPP    O###############   XLLLL.   #####$m##++++++###O######+###O##",
"+######@++#########OO>%O###O    X...    ###+############    $$$$    O#####O#######1#    ..X.    ###@+@++#+++++######$#++++++++++",
"*OO#####@+####+#####Ot>+###O            #+O###+########%    <$O+    O#########O###d$            @###++++####++######*#+++3$+++++",
"3+#######++###+@####O+++##OO            ######+=########    t%++    O###########+++O            ++##++++##+$*##########+$p++++++",
"$*$#######@#####O###++++####            ######%>########    ++>+    O###########+++O            ++##+++++++**$##########++$-++O+",
"+-%+######@#################OOOOOO#OOOOO###############O            O########O#O++++##OOOOOOO#OO++##++#####+#+#############>+###",
"++++##########++#####O##############O############O#####O            O####O######++++###########O#@##++######################+###",
"++++##########+@O######################################O            O###########++++#############+#######+#################+##+#",
"++++@######################O#O#########################O            O###########++++##################+######+##################",
"+######+####O###O###############+++++++++###+++++#++++++####+@###@###@######++++########++++###+##@++###++#+#+++++++###########+",
"+##+####O@######################+++++++++##++++*c+++++#+#####+##############++++########++++#+++@#######++++3q++++++####+##+####",
"####+############+####++####++@+++##++++####+++#:O+++*%##+@###############+#++++##@###@#+++++++++###@#+#++++*;++##*$###+####+###",
"#################+@#++++####++++5t##+++++###+++++++++#++##+###+###########++++++########+++++e6##+##+###++++++++################",
"#########O######++++++++####++#+%*########++++++####++++############@#######++++###+####+###+*%############++++###++++###+######",
"######+#########23++++++####++######+#####b-+#++###+++++###+#################9-++@######++##++######+#*m##$+++@###++++########+#",
"########@#######+$++++++#################+%##3$##+####++##@####@##@#########+$#++###########++#++##+++#*#*1++@######+#+#####@###",
"O##O#########@#+++++++++##########%*+#++##+##$#@######+++#+#################++++######@#####+++-$+##++++###+#+######++##+@#++###",
"########O###++#+++##########@@@+++#####+###@#@@+##########@+#####+##+###+###++++#@##+#######@#+++####++####++++#+#########+###+#",
"#######O$>O#+++++##++########@@#++#+###+#####+++###+#################%-#++$#+#++#+##@+####@@@##+++##+#######+@#++########+@#####",
"O#######%G$OO$*O######+###@@##++++#+###########@########+#########@#+6b#++%%++++#+#####+#+++###+####@+##########++#########+++##",
"########+OOO##+###########@@##*++$#+##########+#####@#############++#+#+####++++##########$%##$+#++@###++#####+#++###########@##",
"########++++++############++#%<++$&+######@###########################++##+++#+#####@#####*;+#*$##@+#########+##++++############",
"##O####O++++#+###+##+#####++#+++##++###+#####+##@###@###+#############++##+########+++####+++#@+#######+########+++#####@+#####+",
"########++++##############+++++++####+++@@##############;=#########+++++##+######+##########+##@+##+@@@@##+###@#####+<#++####+##",
"########++++######+####+##++++++######++t;##############<-#########+++++####+@#+@##+@#+############@#c#@##@+##++#+@++3%#####+@##",
"###+######+@######+#@+###+@+#####+####@+t:#####+###+++$$######+###############+#####@+#####@#######++v++######+###+%############",
"#######+##########+@#+#######+####@+##++########@###@@$$+############################+#+#+#+#######+++++#####+#####%############",
"##+#+#@++##+#####+#####+@#####@+##+#+##+++*#####++##++##+###############@##+#+##++++###@#########++++++*######++######@#########",
"#+@##########+#########++##+##+#########++%$#####+####@#####+########@####+++###++++##+#@#+#+#####+++++$######+++####++#########",
"####+#####@+#$*#@+#####@++#########+OOOO++++++%0##########################*%#++++++++++++###########@+++###;5+++#####+##########",
"@++########++#$<3++######+e#####++#@+OOO##++++#-+###########+++#############6-++@+++++-8@##+######+@++#####%=#++####@###########",
"######@+###+++#%%######++#-#####++++++#c1++++++++###########++############+#*$++@+++++$*+++#######++b$############+#+###########",
"*$####+#########@#+##+++##+#####++++++#*$+++#+++############+-++####@#####++++++@++++++++@+######+++-$#################+##-#####",
"########+++#########+#++################+#########++++######+++###@###+###+####+######@@++++##+@#+#+++##+#################$++###",
"########+++##########++++#####-q########+#######++++++##+#####################++########+++36######+++######++######@@######++##",
"###################+##########+#########++######++++++++####################++++#####+++++++@++############+####+#+#@##########+",
"############+#########+###$####+########++######%2++++$$@###################++++###+#@+#++++++#####+###+####+->###+&#++#########",
"#########################+=+############++++########++3<######@##########+##++#########*+###@######+#+###+#####+##+9-###########",
"######+#####+#############w%#########+##++++########++++###########@##+#####+++#######-8++##@####+@#########++##+####++####+#+##",
"+##+##########+##########+################++######+++++################+#########+#####+##################+####+####+####+######",
"#########3+########################$+###+##+######++++##@############=<++##+###################$#+###+#############+##########+#"
};
