/* XPM */
static char *player-32[] = {
/* columns rows colors chars-per-pixel */
"32 32 89 1",
"  c #000000",
". c #000001",
"X c #010000",
"o c #010101",
"O c #020000",
"+ c #020001",
"@ c #030101",
"# c #020202",
"$ c #030303",
"% c #040404",
"& c #171228",
"* c #171229",
"= c #171328",
"- c #171329",
"; c #181228",
": c #181229",
"> c #181328",
", c #181329",
"< c #18132A",
"1 c #19132A",
"2 c #191429",
"3 c #18142A",
"4 c #19142A",
"5 c #19142B",
"6 c #19152B",
"7 c #1A152B",
"8 c #1B152B",
"9 c #1B162B",
"0 c #1A152C",
"q c #1A162C",
"w c #1A172D",
"e c #1B162C",
"r c #1B172D",
"t c #1B172E",
"y c #1C172D",
"u c #1C172E",
"i c #1B182E",
"p c #1C182D",
"a c #1C182E",
"s c #1D182E",
"d c #1D192F",
"f c #1E1A2F",
"g c #1E1A30",
"h c #1F1A30",
"j c #1F1A31",
"k c #1F1C32",
"l c #201C32",
"z c #201D32",
"x c #211C33",
"c c #211D33",
"v c #221D33",
"b c #231E33",
"n c #211D34",
"m c #221D34",
"M c #242036",
"N c #4153B4",
"B c #4153B5",
"V c #4253B5",
"C c #4254B5",
"Z c #EF4135",
"A c #F04135",
"S c #F14235",
"D c #F04336",
"F c #F14236",
"G c #F24336",
"H c #F24337",
"J c #F34337",
"K c #F44437",
"L c #F44538",
"P c #F44639",
"I c #F4463A",
"U c #F9F9F9",
"Y c #FBFAF9",
"T c #FBFAFB",
"R c #FBFBFB",
"E c #FBFAFC",
"W c #FBFBFC",
"Q c #FCFBFB",
"! c #FEFCFB",
"~ c #FCFCFC",
"^ c #FCFCFD",
"/ c #FDFDFD",
"( c #FDFDFE",
") c #FEFCFC",
"_ c #FEFDFD",
"` c #FEFEFE",
"' c #FEFEFF",
"] c #FFFEFE",
"[ c gray100",
/* pixels */
"::****w6*&**6i***::::w66&*:ww6&&",
":*h::*6:6***6****h::::*::&::::&&",
":**:::*******6i***::*****:*:&f:&",
"*::h**:*****&&   *h:******::&*::",
"v:6**:::<*6*<< n ::******6**&&v&",
":::66:::6v**<< ^ :&f*:*6v:******",
"::*:**:i**h*&  _  **:*u**f**::**",
"f::**f&66**6* 6_* **h*66**66::v&",
"****:::::***< ___@::&:&&********",
"****::::h*&6h ___@&:&:&f***h:***",
"&&**w:::6:    ___    :&6*hw*:*::",
"&&v6:::6:& A %___$ A &66****:::*",
"&&:*::&    A ____^ H    6v&&:i**",
"**::*** A  _V__L__N^@ A@&:*66*&*",
"6&&66:f K  C__PAP_^N  H &f66**6&",
"&&&&::& Q 6___P_H__^6 Q &&:w6:&&",
"**h*&&f _i___________k^ <<&<*<<&",
"*****&& _____L___I___^^ <<&<<<<&",
"***i*&* ___6PH___LHw^__ <***<6&&",
"v:66*** _^u AA___HA <__ &<**&<k&",
"**:66** _M *  %_   f 6_ v<&&&&**",
"**::*<* ^ h<** _ :::: Y *f&&&*<&",
"w::**h*   *6*: v :::h   **<6*<k&",
"6::&****<*****   :::::6&****&<<&",
"&:&&&::*f**6f***::::*&&f***h<***",
"&:&&w::*6*h6***&**:w&&&6<h6&****",
"::v6&&&6:******&:v6&**:6*&&&****",
"::**&&&6:&f***f&**:&**6:*f&&&i**",
"::::&::&&&f*&6&&*&*:*&**:f::6*&&",
"6::66:f:&f6w&&&6***f&w**:f6w&&6*",
":**&&&&w&&::6:*:****&&66:::6&&&&",
"**6&&&f:6::::w::*6**&f&&6:::66&&"
};
