/* XPM */
static char *player-64[] = {
/* columns rows colors chars-per-pixel */
"64 64 155 2",
"   c #010000",
".  c #020000",
"X  c #020102",
"o  c #040101",
"O  c #040202",
"+  c #040304",
"@  c #040404",
"#  c #050404",
"$  c #060506",
"%  c #070606",
"&  c #080607",
"*  c #171227",
"=  c #171228",
"-  c #171329",
";  c #181227",
":  c #181228",
">  c #181329",
",  c #181429",
"<  c #18142A",
"1  c #18152B",
"2  c #19142A",
"3  c #19152A",
"4  c #19152B",
"5  c #1A1429",
"6  c #1A142A",
"7  c #1A152B",
"8  c #1B162B",
"9  c #1A162C",
"0  c #1A172D",
"q  c #1B162C",
"w  c #1B172D",
"e  c #1D152B",
"r  c #1C162C",
"t  c #1C172D",
"y  c #1C182D",
"u  c #1C182E",
"i  c #1C192F",
"p  c #1D182E",
"a  c #1D192F",
"s  c #1E192E",
"d  c #1E192F",
"f  c #1F1A2F",
"g  c #1E1930",
"h  c #1E1A30",
"j  c #1E1B31",
"k  c #1F1B31",
"l  c #1F1B32",
"z  c #1E1C32",
"x  c #1F1C32",
"c  c #201B32",
"v  c #201C31",
"b  c #201C32",
"n  c #201D33",
"m  c #211C32",
"M  c #211D33",
"N  c #221D33",
"B  c #211E34",
"V  c #221D34",
"C  c #221E34",
"Z  c #221F35",
"A  c #231F35",
"S  c #231F36",
"D  c #241F35",
"F  c #242036",
"G  c #242137",
"H  c #252137",
"J  c #262137",
"K  c #262238",
"L  c #262339",
"P  c #272338",
"I  c #27233A",
"U  c #26243A",
"Y  c #28233A",
"T  c #28243B",
"R  c #28253B",
"E  c #29253B",
"W  c #29253C",
"Q  c #29263C",
"!  c #2A263C",
"~  c #2A273D",
"^  c #2B263C",
"/  c #2B273D",
"(  c #2C273D",
")  c #2B283E",
"_  c #2C293E",
"`  c #2C293F",
"'  c #2D293E",
"]  c #2D293F",
"[  c #2D2A40",
"{  c #2F2B41",
"}  c #2F2C41",
"|  c #2F2C42",
" . c #302D43",
".. c #312D43",
"X. c #312D44",
"o. c #322E44",
"O. c #322F45",
"+. c #313046",
"@. c #333046",
"#. c #343046",
"$. c #343147",
"%. c #343247",
"&. c #343148",
"*. c #353248",
"=. c #363349",
"-. c #38354A",
";. c #3A364B",
":. c #3B384E",
">. c #3E394F",
",. c #3E3C51",
"<. c #403D53",
"1. c #403E54",
"2. c #433F55",
"3. c #3F51B3",
"4. c #3F51B4",
"5. c #4052B4",
"6. c #4153B5",
"7. c #4254B5",
"8. c #4354B6",
"9. c #4355B6",
"0. c #4557B7",
"q. c #EA3F33",
"w. c #ED4034",
"e. c #EE4134",
"r. c #EF4134",
"t. c #EF4235",
"y. c #F04134",
"u. c #F14134",
"i. c #F14336",
"p. c #F34235",
"a. c #F34336",
"s. c #F04437",
"d. c #F14437",
"f. c #F34437",
"g. c #F34438",
"h. c #F34538",
"j. c #F34639",
"k. c #F3473B",
"l. c #F9F7F7",
"z. c #F8F8F8",
"x. c #F8F8F9",
"c. c #F8F9FA",
"v. c #F8F9FB",
"b. c #FBF9F9",
"n. c #FAFAFA",
"m. c #FAFAFB",
"M. c #F8F9FC",
"N. c #FAFAFC",
"B. c #FAFBFD",
"V. c #FDF9F9",
"C. c #FCFAFA",
"Z. c #FDFBFB",
"A. c #FCFCFC",
"S. c #FCFCFD",
"D. c #FEFEFE",
/* pixels */
"> > > = = = < = = = < = = = = z > > > > > > - - g 6 = = > > = > > > = > = = < = > - > = = 0 0 = < - - - > > 6 0 < < = < - - - - ",
"> > > > = = = = = = = = < G < = > > > > > - - > 8 > < T > = > > = > > = 6 = < = > - > S < = - - - - - - > > 6 6 6 S 6 - - - - - ",
"> > > = = = > > 1 = = = < 0 = = > > > > > - > - = < < - = = = = > > > = = < = = > > - 6 = - - < - > - - > > > > = < = - > > - - ",
"> > > > &.= > > = = < = = = = < > t > > > > > > < 6 - - = = = = > = n / = = = = > > > - = < - 6 6 - > - > > > > 6 = = < > > - - ",
"= > > > = > > > - - - - = = = < > > > > - - - - - - > 6 6 = * = > > - - < < = = > - > > > - > - - - - > - > > > - - 6 - > > > > ",
"> > = > > = > > - - - > < = = = - - > - - - - - - - - - T < = * - - - - = = < = - > - > - > > > - - - > - > - ; > - T 6 > > > > ",
"> > > > > = = = - - > > - - < - > > - - - - - - - - - - X X X X X X - - = < = = > > > - > - > > - > > - > > - > > > - - > > > > ",
"> > > > > = n / > > - - - - - - - - - - - - - - - - - - X X X X X X - - < +.= = - > > > > > - > > - - > > - > - > > > - > - - - ",
"#.S > > > c - > - > - - - - - > = = = = 0 < - - = = = = X X < ,.X X * 0 z = = = = < = - - > - > - - 6 - > > > > > > > > - <.- - ",
"= = > > = - - > > > - - - > - > < < < - - - - - = = = = X X = < X X = * = < = 0 = = - - - - - - - - < < > > > - > > > > > - - - ",
"> = > > = > > c c > > > > > > > < z < ,.< = = - = = = * X X B.Z.X X * * = = / > = = = = - - - z 6 :.6 6 > > - - - > > - - > - - ",
"> > > > > > > > 6 > > > - > - > < = < = - = < - > > * * X X Z.Z.X X * = = = = > = < = = - - - - - < > > > > - - > - - > > > > - ",
"> = = = - - > > - - - < > - > > < = = = = = > = = = X X X X x.Z.X X X X * * = = < = = < - - = < - - - 6 - - - - - < = < > > - > ",
"= = < = - - - - - - < = > ; 8 S = = < = X.h > = > = X X X + x.Z.X X X X * = = = = < = = = R = < - - < X.- - - - - = = = > > - > ",
"c - = = - - - - - - [ 0 < = 6 = 0 = = = = = = < = * X X < 0 m.Z.* * X X = = = = < | < = < < < < - - - - - - 6 - - - 0 6 #.- - - ",
"c 0 - = - > - - - - < = = = 0 = < = = = = = = h = * X X < i m.Z.* * X X = = = = = = < = < < < < - - - - < 6 g - - - = = = c ; ; ",
"< = - - - > - > = > > > > = > > > > = > > > > > = = X X x.Z.Z.Z.Z.m.X X = = = = > > > > > > > > - - - - - - - - - - - - - - - > ",
"= = - - > > > - > > > > > > > > > > = < > > > > * = X X Z.Z.Z.Z.Z.x.X X = = = = ; > > > > > > > - - - - - - - - - - - - - - - > ",
"< < - - - > > > > > > > > > > > = = = = > > > 0 [ = X O m.Z.Z.Z.Z.m.X X = = = = > > > > > > > > > - > - - - #.- - 6 < - > > > > ",
"= = - - > - > - > > > > = > > = +.= = = = = = = * * X X Z.Z.Z.Z.Z.m.X X = = * * = * > > > > T n > > - - - - < - - 6 - - > > > > ",
"- - - - > > - - U = > > > > > = > = = * X X X X X X X X Z.Z.Z.Z.Z.m.+ X X X X X X X * = > > > > > > > &.> g > > > > > - > > > > ",
"> - - < > - > - = > > > > > > = > t = * X X X X X X X X m.Z.Z.Z.Z.Z.+ X X X X X X X = * > > > 0 6 > > > < 6 > > > - > > > > > > ",
"- > = = >.= > 6 = > = > > > = = > > * * X X e.q.X X X + Z.Z.Z.Z.Z.m.+ X X X y.q.X X = = > > = = - > > > - - > > - > > > > > > > ",
"> - < = 6 > > > > > > > > * < i = 0 * * X X p.e.X X + & m.Z.Z.Z.Z.Z.@ X X X p.e.X X = = = n = < - > > > - - - > - > - > - > > > ",
"> > - > > > > > = > > = = * X X X X X X X X y.y.X X l.x.Z.Z.Z.Z.Z.Z.m.m.+ X i.e.X X X X X X X X - - - - - - - - > - 6 < - - - - ",
"> - > - > > > > > = > = = = X X X X X X X X i.e.X X Z.Z.Z.Z.Z.Z.Z.Z.Z.m.+ X i.e.X X X X X X X X > < 1.- - - - < > - S 6 - - - > ",
"- > > - = > = > = = > = = * X X y.e.X X X X m.m.8.4.Z.Z.Z.Z.j.f.Z.Z.Z.m.6.4.Z.x.X X X X e.e.X X > > - < - - < = > 6 > > > > > > ",
"> - > > = = 6 > < = 6 = * * X X y.e.X X X + m.M.8.8.Z.Z.Z.Z.f.p.Z.Z.Z.Z.8.8.m.x.X X X X e.e.O X > > = 0 < 6 0 < > > > > - - > > ",
"- - > - > - > c z = - > > T X X p.y.X X X X 8.8.m.m.Z.Z.k.j.p.p.j.k.Z.Z.m.m.8.4.X X X X i.e.X X > > T - = 6 h = > > > > - - - - ",
"8 > - > > > > > < = > - > > X X f.i.X X X X 4.0.m.Z.Z.Z.j.i.j.j.i.k.Z.Z.Z.Z.0.4.X X X X e.i.X X - - c - > > < = > > > > - g - - ",
"- - - > > > - > = - - > > = X X Z.m.O X * = B.m.Z.Z.Z.Z.j.f.m.Z.i.j.Z.Z.Z.Z.m.M.0 ; X O m.x.X X - < = = > > = = > > > > - - - - ",
"- - > - - > > > = < - > > = X X Z.m.@ X * = Z.Z.Z.Z.Z.Z.f.j.m.Z.i.j.Z.Z.Z.Z.Z.m.< * X O m.m.X X - = = 6 > > 0 g > S 6 > - - - - ",
"< = < = = = = = > > > > = K X X Z.x.0 0 Z.Z.Z.Z.Z.Z.Z.Z.Z.Z.Z.Z.Z.Z.Z.Z.Z.Z.Z.Z.Z.Z.0 ) B.x.+ X = = = = = < - > - 6 - - - - - - ",
"= = = = &.< = 1 > = > = < * X X Z.B.h z Z.Z.Z.Z.Z.Z.Z.Z.Z.Z.Z.Z.Z.Z.Z.Z.Z.Z.Z.Z.Z.Z.h h m.m.X X = = < = = = - > - - - - - - - - ",
"= < = = = < = = = > > > = = X X Z.Z.m.m.Z.Z.Z.Z.Z.Z.j.k.Z.Z.Z.Z.Z.Z.k.k.Z.Z.Z.Z.Z.Z.m.m.Z.m.+ X = < = = < = = 6 6 - 0 - > - - - ",
"= = < = = = = = > > > = = = X X Z.Z.Z.Z.Z.Z.Z.Z.Z.Z.j.j.Z.Z.Z.Z.Z.Z.j.j.Z.Z.Z.Z.Z.Z.Z.Z.Z.m.+ X = = = = = = < = = < g < > - - - ",
"= = = = = = = < > > = > = = X X Z.Z.Z.Z.Z.Z.i t j.j.i.f.Z.Z.Z.Z.Z.m.f.p.j.j.< i m.Z.Z.Z.Z.m.X X = > = = = = = < > - c 6 > > > > ",
"< = = = < = h n = > > > = = X X Z.Z.Z.Z.Z.Z.< < e.f.p.j.Z.Z.Z.Z.Z.Z.f.i.i.i.> r x.Z.Z.Z.Z.x.X X > > = = < = = = > - 6 > > > > > ",
"[ z < = = z 0 h = > > > = * X X Z.Z.Z.Z.c < X O q.i.p.j.Z.Z.Z.Z.Z.Z.f.i.y.y.O X < < Z.Z.Z.m.X X = > 0 = = < = = - > > > > #.> > ",
"h 6 = = = < = > > = > > * * X X Z.Z.m.m.> ; X O q.i.e.p.m.m.Z.Z.m.Z.i.y.y.e.X X < 1 m.m.Z.m.X X > > 0 = = = = < > > > > > c - > ",
"= < > > - - - g z < = < = = X X Z.m.i ,.X X * * X X O X X @ m.Z.@ X X X X X J > X X < i m.m.+ X 6 ;.6 > - > - - > > > - > > > > ",
"- - - - - > > > 1 = = = = = X X Z.m.0 < X X * * X X X X X @ m.Z.X X X X X X > > X X * < Z.x.+ X 6 6 6 > > - - - - > > > > > - > ",
"- - - - > > > > = < = = = = X X Z.m.+ X = = * = = > = = X X x.Z.X X * * = > > > > * X X x.m.X X < - > > > > - - > > > > - > > > ",
"- - - - = > > > = < = = = = X X m.m.+ X [ 0 = = = = = = X X x.Z.X X * = > > > > > * X O z.x.X X - - > X.- - - - > > > > > > > > ",
"6 = > > = > > = > > [ h * * X X X X X X < > > > = = = 0 X X n < X X = = = = > = > #.X X X X X X - - - - < - - - - - 6 - g > = = ",
"Z 6 > > > = > > = > = = = * X X X X X X > > > n = = > > X X / 0 X X = = = = > > = * X X X X X X - - - - 6 6 g - - < 6 - / t = = ",
"0 6 > > > > > = > > = = = = = = * * > > > > > > = = * * X X X X X X * = = = = = = = = = * = = = - - - - > - - > - - < - = g = < ",
"= < > > > > > = = = = = = = = = = = > > > > > > = = = * X X X X X X * * = = > > = = = < * = = = - - - - > > - > > > = = = < = = ",
"< - - - > > > > > > = = < = < = - - - - - - - < [ < - - > > - > > > > > - < < = - - - - = < < < - > - > = < [ = < - - - - - - - ",
"- - - - > > > > = > < = = = = = X.- - - - - < = 0 = < < > - > - > > > > - = = = > - - - = < S c - > - > = = h = = 0 - - - - - - ",
"> > - - > > > > K = = = - - < = g - - - - X.= < - - < - > > > > > > - - - - Z 0 - - - - = < < 6 > > > X.= > - - = = = - > > - - ",
"- > - - > > > > > = < = - < = = > 0 - - - 6 c 6 - - - - > > > > > > - - - - < < > > - - - - < 0 6 > - 6 6 g ; > < = < - - - - - ",
"> > > - g > > > - - - - - - - - = = = - > - - - - - > > > - > > - > > t - > > = > > - > = = = = - - > > > > - - > > > > > - > > ",
"> > > > -.> > > - - - < - - = > 6 > < - > - - - - - > > > > > > > - c [ - 6 = = - > > > 6 6 = 6 - - > > > > > > = > > > > > - > ",
"> - > > - - - > - - = = = < 6 g > 6 > > > > = < - - - > - > > > > > > > > - > - > - - > > g > 6 > - > > > > > > = < 6 > > > > - ",
"> > > > - - - - - - < = = = = = > > > - ^ > = < - - > > T > > > > > > > > > - > > > > - > > > > - > / > > - > - = - S > - > - > ",
"> - > > - - - < - - - > - > > > - - - - / > = = > - - g - - > = > > > > > > > > - - - - - - > > - - [ = > > - - = 0 > > > > > > ",
"> > - - - - - 6 - - > - > - > - - - - - > t = < - - - > - 6 = > > > > > > = = > - - - - - - - > - < = 0 > > - - < = > - > > > > ",
"- > > > - - 6 c c - > > 6 S > > - - ; - > = = T - > > > - - > > > > > > = 0 K = = < = T - - - - - - - > > g S < - > > > = 6 > > ",
"8 > > - > - = 6 6 - - - > 6 > > - - - X.h = < = - > > > > > 6 - > > > > < < 0 = = = = 6 - - - - - - #.> > - > > - - - > = 6 > > ",
"> > > > - - > > > > - - > = 6 T > > > > - > - - - - - - - > - > > - - - = < - - - > > > = c c - - - - > - > - > - - - - 6 6 - - ",
"> > > > > > - > > - - - > 6 = = > > > > - > > - c - = 6 > > > > > - - < = = - - - - - - = > > > > - > - > > 6 g - 6 - < - - - - ",
"> > > > > > - > > > - - < T = < - > - - - - - - < = = K > > > > > > 6 = - - - - 6 - = T = = - > - > > > > > - > > S 6 6 > - - - ",
"> - > > c > > - > > < = = < = = - 6 > - - - - - - = = < > > > > > > 6 g - - - - = > > - - < - 6 > > - > > - > - > > > > - > > - "
};
