/* XPM */
static char *wall-64[] = {
/* columns rows colors chars-per-pixel */
"64 64 111 2",
"   c #070606",
".  c #070709",
"X  c #070807",
"o  c #070808",
"O  c #080707",
"+  c #080709",
"@  c #0B0A0C",
"#  c #0E0D12",
"$  c #0F1015",
"%  c #100F13",
"&  c #110F1A",
"*  c #121214",
"=  c #15131B",
"-  c #18161C",
";  c #1B1B1C",
":  c #130F20",
">  c #161227",
",  c #171228",
"<  c #191624",
"1  c #18142A",
"2  c #1D1B23",
"3  c #1D192D",
"4  c #1E1A31",
"5  c #1F2020",
"6  c #201F22",
"7  c #201D2C",
"8  c #211D33",
"9  c #232325",
"0  c #25252A",
"q  c #272829",
"w  c #28272F",
"e  c #2B2B2C",
"r  c #242136",
"t  c #262339",
"y  c #292632",
"u  c #29253B",
"i  c #2E2D31",
"p  c #2D293F",
"a  c #2E302F",
"s  c #2F3030",
"d  c #302F34",
"f  c #312E3F",
"g  c #313232",
"h  c #353539",
"j  c #373839",
"k  c #3A3B3C",
"l  c #2E2A40",
"z  c #322E44",
"x  c #333146",
"c  c #333149",
"v  c #39354B",
"b  c #3D3D41",
"n  c #3E3A4F",
"m  c #3F4041",
"M  c #403E46",
"N  c #403C51",
"B  c #424245",
"V  c #454549",
"C  c #47484A",
"Z  c #4A4B4D",
"A  c #444152",
"S  c #4E4E51",
"D  c #4F5052",
"F  c #525355",
"G  c #555559",
"H  c #5A5A5D",
"J  c #5D5E61",
"K  c #5F6063",
"L  c #616165",
"P  c #656669",
"I  c #696A6D",
"U  c #6D6E72",
"Y  c #6F7073",
"T  c #717276",
"R  c #757579",
"E  c #77787C",
"W  c #797A7E",
"Q  c #7D7D82",
"!  c #7F8084",
"~  c #818186",
"^  c #85868A",
"/  c #87888C",
"(  c #898A8E",
")  c #8D8E93",
"_  c #8F8F98",
"`  c #8F9095",
"'  c #908F95",
"]  c #909196",
"[  c #939499",
"{  c #97989D",
"}  c #999A9F",
"|  c #9C9DA2",
" . c #9FA0A5",
".. c #A0A1A6",
"X. c #A4A5AA",
"o. c #A7A8AD",
"O. c #A8A9AE",
"+. c #ACADB2",
"@. c #AFB0B5",
"#. c #B1B2B6",
"$. c #B4B5BA",
"%. c #B7B8BD",
"&. c #B9B9BE",
"*. c #BCBDC2",
"=. c #BFC0C4",
"-. c #C1C2C6",
";. c #C4C5CA",
":. c #C7C8CC",
">. c #C9CACF",
",. c #CCCDD2",
"<. c #CFD0D4",
/* pixels */
", , , , , , , > , , , , , , , 3 , , , , , , , , 3 , 1 , 1 > > , , , , , , , , , , , , 1 , 3 3 : 1 , , , , , 1 1 1 1 1 1 , , , , ",
", , , , , , , , , , > , , r 1 1 , , , , , , , , 1 1 3 8 1 > > 3 1 , , , , , , , , , , 8 , , 1 , 1 , , , , , 1 1 1 8 1 , , , , , ",
", , , , > , , , , , , , , 3 , , , , , , , , , , 1 1 1 , 7 < * @ & , 3 , 1 , , , , , 1 1 , , , , , , , , , , , , , , , , , , , , ",
", 1 , , x , , , , , > , , , , , , 3 1 1 , , , , 1 7 > & O   % B E - 6 u 7 < 1 : , , , , , , : 3 , , , , , , , 1 1 1 , , , , , , ",
", , , , , , , , , , , , , , , 1 > 1 , 1 > 3 3 = % + O - @ s ;.,.,.S U 6 + + < 7 1 , , , : , 1 : , , : 1 1 , , , , , 1 , , , , , ",
", , , , , , , , , , , , , 3 < = 1 1 3 < - @     6 H } >.F % X.] ,.,.,.F V ~ | + = 7 1 , 1 , 1 , , , , , , , , , , 1 t , , , , , ",
", , , , , , , , < 1 3 - *   . - e - @   O ; J o.>.,.,.,.+.O.B * ;.*.O.#.,.,.:.R / @ > , , , > , , , , , , , , , , , , , , , , , ",
", , , , , , r f = *     9 J | ,.R @ 9 D W ) O.,.*.o.} ,.<.,.~ O I ' ( Q #.| ' %.,.2 % , , , > , , , , , , , , , , , , , , , , , ",
"x 8 , , 1 8 < + + e I O.,.,.,.,.*.! _ ) ) I H ] ] ] ) +...>.&.* S d 9 d ~ W ) ..,.G * i < < > 1 , , 1 , , , , , , , , , , n , , ",
"> , , , , < < + R ,.,.,.,.,.,.,.<.} ) ) ) j a ~ ] ] ] ) ) $.,.:.*.% 9 ; 9 s E ) =.O.=.E + > > 1 1 , , , , , , , , , , , , , , , ",
"1 > , , , 1 3 @ G ,.,.,.,.,.<.,.,.O.) [ ) F a P ) ) ) ] ]  .>.*.+./ ( @ * s k g Y } >.| O = > 8 1 v 1 , , , , , , , , , , , , , ",
"> > , , , 1 < ~ ,.,.,.,.;.} ,.,.>.O.) ] ) ! E ) ] ] ] ) ) _ ] ) ] ] [ d @ s s s D ] ' ' - # 1 > 1 1 , , , , , , , , , , , , , , ",
"> > > 1 , 3 + G ,.,.,.,.>.] O.X.] _ ) ] ) ] ] ] ( E H ) ) ] ] ] ] ] ] K e m s g j ^ K h # + 3 > , , , , , , , , , , , , , , , , ",
"1 > > , , , * ; ,.,.<.*...] ] E I _ ) _ ) ( I F j a a ! ) ) ] ) } ] ] ) ] T m H Q q + O % + = > , , 1 z 1 , , , , , , 1 , , , , ",
"8 > > 1 1 , < . / | ,.*.) ! ; O ; ] ~ I Z g g g g k m K ) ] ) _ ) ) ( E Q ] ] ] ] P K B i @ * 1 , , , , 1 , , , , , 1 1 c 1 , , ",
"8 1 , , > > 3   B ] *.,.[ ) ; g H L V g g a Z a a g a B ) ) ) ( Y F j g F ] ] ] [ [ [ Y P h + 3 , , , , , 1 3 , , , , , 1 8 1 : ",
", 1 , , , 1 7 C W ] O.>.| ] ) ] ] ) } F g g a g g g g g ~ _ ) P s s g s j ) ) ) ] ' ] ] ) J : , , , , , , , , , , , , , , , , , ",
", , , , , < + H ] _ ] ) ) ] ) ] ] ] I g g g a g a g a Z ( ) ] ~ a g g s a E ) ) ) ' ! V 2 & 1 , , , , , , , , , , , , , , , , , ",
", , , , > 3 @ i ) _ ) ) ) ) _ ] ] ] Z g g a g g g T &.,.:.] ] ) m m g g s H ) ) ] ) E O # & 1 1 , , , , , , c , , 1 , , , , , , ",
", , , , > > = 2 ) { ) ] ] ] X.$.#.( P a g g g g g T ,.,.,.} ) ) H m g s s b ) ) ) Q S 7 , 1 u 8 , , , , , , , , , 1 1 , , , , , ",
", , > 1 1 < F ,.,.,.' ) ) o.,.,.>.( ^ g j g Z g h B =.@.| ) ) ' W a g g g e W ) 6 + . < , , , 1 , , , c , 4 , , , , , , , , , , ",
", , 1 > 3 % 6 >.,.,...) ' [ &.,.<.} ( B a g g g g e E ) _ ) ) _ ) k k K K @ V ] g = < 1 , , , 1 , , , , , 1 , , , , , , , , , , ",
", , > > N < + O.,.+.T B J ] ) $.<.@.( K g g q 9 g g J ) ) ) ) ) ` / _ ) ) 9 V 9 = , 1 , , , , 1 , , , , , , , , , , , , , , , , ",
", , > > > 7 * M 9 0 g g B ) | -.<.=.( Q g ; X @ s i k ) ) ) ) ) ` ) ` ` ] ] _ * < , , , , 8 1 1 , , , , , , , , , , , , , , , , ",
", , , , , , , 3 % 7 d s i ^ [ ..,.,.[ ( m q @ ; a g g ! ) ) ) J L ` ) ) ) E 9 - , : 1 , , , , , , 1 , , , 1 , , , , 1 1 1 , , , ",
", , , , , 1 , , , 8 s q g P ' ) %.<.O.) H a s g a m j L ) ) ^ @ 5 T T ` ` / $ = , , , , , , , , , 1 N , : : , , , , 8 , 1 , , , ",
", , , , , : , , , , - @ e B ' ' X.<.*.) E a g s g a K ~ ' ) ) ~ @.* a ~ H a 3 > , , , , , , , , , , , 1 1 1 , , , , 1 , , , , , ",
", , , , , , 1 1 > 1 < - = @ / ~ ) ..` ) ) k g s g a E ) ) ) ) +.,.T T * . @ < > 1 , , 1 1 , , , , 1 , 1 1 1 3 , , , , , , , , , ",
", , , , , , 1 8 8 , , , < < q + Y ( ` _ ) F a a s g G ' ) { +.;.,.$.) h > 1 u > , , 1 t 1 1 1 : 1 , u , , 1 4 , , , , , , , 1 , ",
"3 : , , , , , , , , , , 1 1 3 & e $ T ` T H +.I g g D B D ,.,.,.,.*.$ = , , > , , , , , , : 1 , , , 8 , , , , , , , , , , 1 , , ",
", , , , , , , , , , , , , , , u 2 . C ` 5 $ ;.} P ^ ] e * >.,.,.,.,.h > , , > > , , , , : 8 8 , , 1 , , 3 1 1 , , , , , , , , , ",
", , , , : , , , , , , , , , > > 3 @ 2 ~ S I ) ) ] Q G H *.,.>.| J 9 = , , , , > , , , , , 1 > > > 9 G N < Q J 1 , t 1 , , , , , ",
", , , , , , , , > , , , , u , , > > < - e ) R C 9   . i _ D = . @ # 1 , 1 , , , , , , u , , 1 * @ O.*.-.O.O.@.] R - > > > , , > ",
", , , 1 c , , , > , , , , , , , , 3 1 < < 2 + O * > < 3 * @ * > 3 , 4 u , , , , , , , , , < $ T ] E g T m F I ! o.F $ > > > > > ",
", , , , 1 , 1 , > , , , , , , , 1 , > > 1 < = 3 , 1 , 1 3 < , , , , 1 , , , , , > > , 1 = 5 ..%.;.;.) U S * a j K * * = , , , , ",
", , , , , , : 1 > , , , , , , , , , 1 > > > , , > > , , 3 , , , , , , , , , , , > > < * i ^  .` _ ` $.{ ] F H I W T P 9 > , , , ",
", , , , , , , 1 , 1 , , , , , , : , , , , , , , 1 , , , 4 1 1 , , , > > , , , , = g ) F _ H C ) ) ) ) ] ] ! W ] ] _ S = > , , , ",
", , , , , , 3 4 , , , , , , , , 1 , , , , , , , , , , , , , , , > , > > , u 1 # H >.,.$.) ) W ) D R _ ) I j k / ) ` i , 1 , , , ",
"l 4 , , , 4 3 4 > , , , , , , > 1 1 , , 3 1 , , , , , , , , , h > , , 1 3 t # ( ,.,.>.*.] ) Q k j j / ) C a g S ) m * , , z , , ",
"4 1 , , : 3 , 1 , , , , , , < < @ * & > 2 + & = < , , , , 1 , r , , , 1 1 > = o.,.=.| T / P g k a g ^ ] ~ B a g S b > , , r , , ",
", , , , , , , 1 8 , , , 1 > < L Q H k - O.O.E V ; > , , , , , , , , , , 1 , 7 $.,.#.Q - I U g g g ! ,. .] T J ( P 3 , , , , , , ",
", , , , , , , , > , , , < + ) q ) / ~ / - &.,.,._ = , , , , , , , , , , , , < e { :.{ ( ) U g g g b ] ) ) ) ) ` Q = , , , , , , ",
", , , , , , , , 1 , , < 6 i ) J Q F g D K $.:.,.| m = > , , , , , , , , , , , 0 ! { _ ) +.] C g g s V ) ) F G I Z > , , , > , , ",
", , , , , , , , > 1 = g L ) ) ~ i g i P ] ) ] ,.G S - * , , , , , , , , , , , * T ) _  .,.&./ h - ; h J _ Q +.P - 1 , , , , , , ",
"1 , , , , , , , < = e ) { *.{ I g g g C Q ) E B B ! ` S > > 4 , , , , , , , , < ~ :.] ! { ,.+.T e a g U ) | ,.| > , 3 1 3 > 1 , ",
"8 1 , , , , , , e q D ] +.,.] F q q g k ! ) Q G ` ` ` T e > u 3 , , , , , , , = L O.C k ) | ,.| L g g B F &.,.T > , , , u 3 , , ",
"3 , , , , < 1 = a g U | ;.=.) k * + g k ) ) ) ' [ ` _ C j 3 , 3 , , , , , , , , - 2 w q V ) { ] ) I I T G +.V # , , , , 1 3 , , ",
", , 1 , , > G R G h ^ _ ,.+.~ a g e g S ) ' ) ) F Z F = / q * = , , , , , , , , 1 1 > = = i d h W m [ B # 9 > , , , , , , > , , ",
", , , , > % } ,.$.) ] -.,. .I g m a g ~ $. .) ) j g a C ) Q H q > , , , , , , , , , , , , , 1 : g B 9 = , , u , , , , , , , , , ",
", , , , 1 < Q #.| ) ] #.-.] G g g g g $.,.$.) ! m g a K ) ` ) e . > , , , , , 1 , , , , , , t 4 < 1 < , , 1 4 , : 4 , , , , , , ",
", , , , > < % ) ] ] ] ) ] ] C a g g g j H ] ] I g g a R ` ` ` ` / 0 , , , , 4 1 , , , , , , 1 1 , , , z 1 , , , 1 , , , , , , , ",
", , , , > < g ] ) O.] ] ] ) ] j g g g g g ( ) R F j g ) ` [ ) W V o 1 , , , , , , , , , , , 1 1 , , , 3 1 4 1 , , , , , , , , , ",
", , , , 4 , < V { ,.[ Z e L F j a k a k V ) ) ] [ ` ^ ( I ~ j * * @ 1 3 1 1 , , , , , , , , 1 , , , , , , , , , , , , , , , , , ",
", , , , v , * I &.;.) T V T ) ) ! P D k H ) ] ] ` ` K C g g W P q & 4 l 1 1 , , , , , , , 1 1 , , , , , , , : , , , , , , , , , ",
", , , , , 1 @ +.,.,.*.} O.{ ] ) ) ) ) ) ( ] [ ] ` [ q 5 g k { @.a < > > , , , , , , , , , 4 , 1 , , , , , , , , , , 1 1 , , , , ",
", , , , , 1 < O.,.,.;.*.,.,.] ] E j / ) ] ) $.,...Z * a L ] X.X.$ > > 1 , , , , , , , , , , , , , , p , , , , , , , 8 , , , , , ",
", 1 , 1 , 1 , 0 ,.,.,.<.,.;.) ] L k ] { ` | ;.I G j k ( ) %.U & 3 > , , , 1 , , , , , , , , , , , , l , , 1 1 , 1 1 1 , , , , , ",
", , , : , : < & k I | ;.,.( Z Y ) | &.O.#.,.,.9 W | X.:.%.) b > > > 1 > > , , , , , , , , , , , , , , 1 , , , , , 1 , , , , , , ",
", , , 1 , : 1 8 6 = @ @ h b = @ @ h Y  .>.O.V I ;.,.! Z R * 1 1 > > > > 1 3 t , , , , t , , , , , , , , , 4 4 1 , , , , , , , , ",
"3 , , , 1 1 1 1 1 1 1 3 < 1 > 3 < > * # * 9 q  .;.9 y = > , 1 , > > > > , , 1 , , , , 1 , , , , , , c , , , , , , , , , , 1 , , ",
", , , , , , , : , , , , > 1 > u , , > 1 3 = * @ = < > > , , , , , , , , , , , , , , , , 1 4 4 , , , , , , , , , , 1 1 , 1 , , , ",
", , , , , , , , , , , , 1 > 1 , , , > > , , 1 , r , , 3 , , , , , , , , , , , , , , , , , , , , , , , , , 1 1 4 , 1 , , , , , , ",
", , , , 1 , , , , , , 1 1 u , , , , , , , , , , , , , t , , , , , , 1 , , , , , , , 1 t , , , , , , , , , , , , , 4 1 , , , , , ",
", , , , 4 , , , , , 1 1 : : 1 , , , , , , , , , , , , , , , , , , , 1 3 , , , , , , , 1 , , , , , , , , , , , , 1 1 , , , , , , "
};
