/* XPM */
static char *wall-32[] = {
/* columns rows colors chars-per-pixel */
"32 32 71 1",
"  c #08070A",
". c #0B0A0C",
"X c #0F0E12",
"o c #100F13",
"O c #110E18",
"+ c #121115",
"@ c #15121D",
"# c #1C1D1E",
"$ c #171422",
"% c #171228",
"& c #181525",
"* c #181329",
"= c #1B1924",
"- c #1D192E",
"; c #1E1A30",
": c #201F23",
"> c #211E2E",
", c #211D33",
"< c #242326",
"1 c #25232A",
"2 c #272829",
"3 c #2C2C2E",
"4 c #292736",
"5 c #2E2D32",
"6 c #313233",
"7 c #36353B",
"8 c #3B3B3D",
"9 c #3D3D41",
"0 c #414143",
"q c #464749",
"w c #4A4A4D",
"e c #4D4D51",
"r c #525256",
"t c #555658",
"y c #57585B",
"u c #595A5D",
"i c #5D5E62",
"p c #626366",
"a c #646569",
"s c #67686B",
"d c #69696E",
"f c #6E6E72",
"g c #717276",
"h c #76767B",
"j c #77787C",
"k c #7A7A7E",
"l c #7C7D81",
"z c #818287",
"x c #858589",
"c c #898A8E",
"v c #8D8E94",
"b c #8F9095",
"n c #919296",
"m c #939499",
"M c #98999E",
"N c #A1A2A7",
"B c #A5A6AB",
"V c #A7A8AC",
"C c #A9A9AE",
"Z c #ABACB1",
"A c #AFB0B5",
"S c #B2B3B7",
"D c #B6B7BB",
"F c #BABBBF",
"G c #BCBDC1",
"H c #BFC0C4",
"J c #C1C2C7",
"K c #C5C5CA",
"L c #C7C8CD",
"P c #C8C9CE",
"I c #CDCED3",
/* pixels */
"%%%%%%-%*%%%--%%%%%%%-%%%%%-*%%%",
"%%;%%%%%*%%%%%%%%;%%%%%%%%%%%%%%",
"%%%%%%%%%%%%%%-%%%%%%%%%%%%%%,%%",
"%%%;%%%%%%%*%%%%%%;%%%%%%%%%%%%%",
",%-%%-%*-*-*%%&,%%%%%%%%%*%%%%,%",
"%%%*,......+%%%&%%%-%%%-,*%%%%%%",
"%%%%- NSSDSN++ooooooo+o@%,%%%%%%",
"-%%&=nIIIIIKappsnnnm<dmi$%%%%%,%",
"%%%-oIIIHJILvnhsAAFIkdCCa@@*%%%%",
"%%%&oGIJCZGDvni8bmMFI8kFCee4-%%%",
"%*%><vLNzdhvnvkdbbncItygvKL0>*%%",
"%%><nvLNiX8vvvnnbbbvPIy#qcbI5$%%",
"%*$<bbbbnnxr76677evnvnnr+7bP5&-%",
"%=rDAbbbbnvh66868wvvvnne+68MFu@%",
"%@tILbbCDNl666666wvnnMnky66cBwO*",
"%&7agucAIZl56669wivvuuugxppee1O*",
"%%-=66zmIZk6776cIJnv666ymnm8#.O%",
"%%&>26zCIZk6666kDSnc866yvnnnt<@%",
"%%%-X3zvICk3.#6avvvv666yvnnxx8@%",
",%-*- lvPZk3#25pvvvn766yvnno &,%",
"%%%*-%Opnnk6668pvvvvnnq8hoo,-%%%",
"%%%%%%&1ivk666izvh<vvblw1>&%%%%%",
"-%%%%;%+edwc56hbvvk8cnu4$%%%%%,%",
"*%%%%%%#7eiZuurzZDJwee5$%%%%%%%%",
"%%%%%%%%>9ffff9cIIJd@O%,%%%,%%%%",
"%%%%-%%%%%XXX.bGGDCo%%%*%,%%%%%%",
"%%,*%%%%*%**%%O...o%%%**%%%%%%%%",
"%%%%%%%-*%-*%%-***-%%%**%-%%%-%%",
"%***%%%%%%,***%%*%%%%%%%%-%%%%%%",
"*%%*%%-%%-***%%**%*-%-%%%,%-%%%%",
"*%%%%%%-%%%%**%****%%%**%%%%%%%%",
"%%*%%%-%*%%**-%%**%%%-%%%%%%-%%%"
};
