/* XPM */
static char *collectible-32[] = {
/* columns rows colors chars-per-pixel */
"32 32 87 1",
"  c #171228",
". c #171229",
"X c #171328",
"o c #171329",
"O c #181228",
"+ c #181229",
"@ c #181328",
"# c #181329",
"$ c #18132A",
"% c #19132A",
"& c #181428",
"* c #181528",
"= c #18142A",
"- c #19142A",
"; c #19142B",
": c #19152B",
"> c #191729",
", c #1A152B",
"< c #1A152C",
"1 c #1A162C",
"2 c #1A172D",
"3 c #1B162C",
"4 c #1B162D",
"5 c #1B172D",
"6 c #1B172E",
"7 c #1C172D",
"8 c #1C172E",
"9 c #1A1C27",
"0 c #1B182E",
"q c #1C182E",
"w c #1D182E",
"e c #1D192F",
"r c #1E1A2F",
"t c #1E1A30",
"y c #1E1A31",
"u c #1F1A30",
"i c #1F1A31",
"p c #1F1B32",
"a c #1C2725",
"s c #201C32",
"d c #211D33",
"f c #211F33",
"g c #221D33",
"h c #231E33",
"j c #231F33",
"k c #211D34",
"l c #221D34",
"z c #213E21",
"x c #24491F",
"c c #244A1F",
"v c #26551D",
"b c #27561E",
"n c #285E1B",
"m c #285C1C",
"M c #224120",
"N c #224221",
"B c #234520",
"V c #244123",
"C c #2E5429",
"Z c #2E7817",
"A c #2F7D16",
"S c #2C6220",
"D c #338E13",
"F c #38A80F",
"G c #39A80F",
"H c #3AAF0D",
"J c #37A210",
"K c #38A311",
"L c #3BB20D",
"P c #3BB50C",
"I c #3CB110",
"U c #3EB910",
"Y c #45E105",
"T c #49F202",
"R c #4AF303",
"E c #4BFB00",
"W c #4BFC00",
"Q c #4BFD00",
"! c #4BFE00",
"~ c #4CFE01",
"^ c #4CFF00",
"/ c #4CFF01",
"( c #4EFF03",
") c #5EFF1A",
"_ c #82FF4E",
"` c #88FF56",
"' c #FCFFFB",
/* pixels */
"++....4:....:r......+4::..+44:  ",
"+.u+..:.:.... ...u..++.+..++..  ",
"+.++.........:0..+..++...... r  ",
".++u.......... .+.u..+...... .. ",
"g+:..+++..:.++.g.::++....++.  g ",
"+++::+++:g....++  +7++.:g:+.    ",
"++....+0  u.+...   O++7..u......",
"r+...r.::..: :+g   +r+::..+:..g ",
"....++++....+++++...++++........",
".....++.u. :r:++++..+++u...u=...",
". ..4+..:.rKH+++.++LJ+++.u4.....",
"..g:..+::..cAF:+.lGAB+;+........",
". .. . .  gxDWSmmm!Dx+++ g  =0..",
"...: ...  :F!!!!!!!!K.++ :.:=...",
"+..::+r. 0T!_'!!!('_WT++ r=:..: ",
"...+++ 4zHW!)`!!!!`)WEIx...:4.  ",
"..u.  r.v!LY!!!!!!!!YLWv:...+...",
"...+   .v!9F!WWE!!!!F9Wv...+::..",
".+.4  ..v!9KP+:.++7PJ9!v.   .:..",
"g+::  ..am+xZPLCBPUZx:ma.:  . g ",
".++::...4g..xJFxBFFx+++;g+  .+.+",
"..++..+:++u.  ..+:+++++..r  .+++",
"0.+..r 0:..4.:+p++++e.4;..=: =g ",
":+++ ..  ...+..:+++O+.....    : ",
"       .r..:r=+.....   r...u:...",
"    4 ..:.u:.......4   :.u: . ..",
"..g:   :... .....g: .  +.      .",
"....   :+ r...4.... ..::.r   0 .",
"++++     .r. :  ........+r++:   ",
":++:: r  r:0   :..:0 4..:r:4  + ",
"++++.. 4++..:.++OO    ::  +:+ ++",
"++:...7.++...4.O.:   r++  ++::++"
};
