/* XPM */
static char *exit-32[] = {
/* columns rows colors chars-per-pixel */
"32 32 131 2",
"   c #050507",
".  c #070608",
"X  c #090709",
"o  c #0C0A08",
"O  c #0D0B14",
"+  c #120C0D",
"@  c #140B10",
"#  c #100D18",
"$  c #1C0E15",
"%  c #131211",
"&  c #17101E",
"*  c #1C1016",
"=  c #1C141D",
"-  c #171324",
";  c #171329",
":  c #1B1626",
">  c #181329",
",  c #1D182E",
"<  c #1F1A30",
"1  c #2F0D11",
"2  c #24121B",
"3  c #2A131C",
"4  c #31141E",
"5  c #231627",
"6  c #231628",
"7  c #241927",
"8  c #221B2C",
"9  c #2B1625",
"0  c #2A1728",
"q  c #2E1A24",
"w  c #2E1E2D",
"e  c #221D33",
"r  c #281E30",
"t  c #321621",
"y  c #331825",
"u  c #361E2B",
"i  c #3A1621",
"p  c #3B1824",
"a  c #3B1E2B",
"s  c #25231E",
"d  c #2B2623",
"f  c #2E212D",
"g  c #252033",
"h  c #2B2233",
"j  c #2B2638",
"k  c #372332",
"l  c #3C2A39",
"z  c #3E3844",
"x  c #4A141A",
"c  c #451924",
"v  c #4E1720",
"b  c #491924",
"n  c #551A24",
"m  c #5C1A24",
"M  c #641B24",
"N  c #6C1B24",
"B  c #731C24",
"V  c #7C1C25",
"C  c #7D2122",
"Z  c #423C47",
"A  c #5D4215",
"S  c #5F4B17",
"D  c #5E501F",
"F  c #48434C",
"G  c #544F55",
"H  c #5C5547",
"J  c #565054",
"K  c #6E5F5C",
"L  c #756A45",
"P  c #7C7058",
"I  c #686261",
"U  c #7A6C63",
"Y  c #7F7971",
"T  c #831C24",
"R  c #8B1D24",
"E  c #921E24",
"W  c #9A1F25",
"Q  c #882422",
"!  c #932122",
"~  c #9A2A21",
"^  c #A21F24",
"/  c #BB331D",
"(  c #A32423",
")  c #AA2324",
"_  c #AA2A20",
"`  c #B32224",
"'  c #B52C21",
"]  c #BC2B21",
"[  c #8C6B4F",
"{  c #9E7A42",
"}  c #917D6C",
"|  c #C0321E",
" . c #C4391B",
".. c #CC3D1A",
"X. c #CF401A",
"o. c #D04619",
"O. c #D64816",
"+. c #DA4C15",
"@. c #DE5114",
"#. c #D2562B",
"$. c #C67C19",
"%. c #E95E0F",
"&. c #E05212",
"*. c #E45B12",
"=. c #EF640C",
"-. c #EF700F",
";. c #EB7E16",
":. c #F1660B",
">. c #F36D0C",
",. c #F67E0E",
"<. c #F47E11",
"1. c #EB7C2E",
"2. c #8B8276",
"3. c #90897A",
"4. c #A6947D",
"5. c #A9957B",
"6. c #CBA42D",
"7. c #E48917",
"8. c #EE931B",
"9. c #F68F1C",
"0. c #F7961E",
"q. c #F69917",
"w. c #F69A1C",
"e. c #F6AF25",
"r. c #F7B52A",
"t. c #D89E69",
"y. c #F7AC45",
"u. c #F9D458",
"i. c #A19A86",
"p. c #C3BA9C",
"a. c #DAC8A2",
/* pixels */
"; ; ; ; ; ; , > > > ; ; > , ; ; ; ; ; > ; > > > > > ; > , > > > ",
"; ; < ; ; ; > ; > ; ; ; > > ; ; ; < ; ; > > > > > > ; > > ; ; ; ",
"; ; ; ; ; ; ; ; ; ; ; ; > > , ; ; > ; ; ; ; ; ; > > ; > > , ; ; ",
"; ; ; < ; ; ; ; > ; ; ; > > ; ; ; ; < > ; ; ; > > > ; ; > ; ; ; ",
"e ; , ; ; ; ; ; > ; > ; ; ; > e ; > > > > > > > > > > > ; ; < > ",
"; ; ; > , ; ; ; , g > > ; ; ; > > > > , > > > > < > > > ; ; > > ",
"; ; ; ; ; ; ; , > > < > ; ; > > ; ; ; > > ; , > > < > > > > > > ",
", ; ; ; ; < ; ; z > > > > > > e ; ; > > g - 7 w 8 , > > > > < > ",
"; ; ; ; ; ; ; ; z F ; ; : > > > , r u p i 4 $ 3 p * ; > ; > ; ; ",
"; ; ; ; ; ; ; ; , z I , , > e 7 9 t p M T W B c V q $ e > > ; ; ",
"; ; ; ; , ; ; ; > ; 2.i., h t 3 x N T Q Q N ) ( ` i 2 9 ; ; ; ; ",
"; ; e ; ; ; ; , > ; > 2.K p m N C | O.O.%.` ! ] R t t 9 ; ; ; ; ",
"; ; ; ; ; ; ; ; > , l p 2.5.2.5.[ t.#.%.-.+.o.| N p p : > , ; ; ",
"; ; ; ; ; ; > > e u 4 c N a.H X . % L 7.q.:.%.^ N p 9 > > > ; ; ",
"; ; ; , , ; , < = * M X.1.[         o 6.w.=...( c $ - > > > > ; ",
"; ; ; ; ; ; , 2 3 N / o.y.s         D e.*. .B M $ # > , > > ; ; ",
"; ; < ; ; , w i N ^ ! ;.u.s     o A 8.>./ m p $ O - ; ; ; ; ; ; ",
"; ; ; ; ; h y N E m ..w.r.{ + S $.>.@.~ c b t 9 ; ; ; ; ; , ; ; ",
"; ; ; , 8 a p ^ N E &.,.>.,.9.-.+._ M n V p 0 > ; ; ; ; ; > ; ; ",
"e ; ; , h i N ` i W O.>.X.` ) V M N R B p 7 > > ; ; ; ; ; ; e ; ",
"; ; ; > k p M ^ i b ^ ..O.' V E ( B b 9 U 3.; > e > > > ; ; ; ; ",
"; ; ; ; w p p ` m y 3 M T T T M i 2 & ; r p.G ; > < ; > ; ; ; ; ",
", ; ; ; , 2 p M E M m x 1 @ X @ # - ; ; e r } j > ; > > > > e ; ",
"> ; ; ; ; : $ t i n N N p y 6 > ; ; ; ; ; ; ; G ; ; ; ; ; ; > ; ",
"; ; ; ; ; ; ; ; > & & > e ; ; ; ; ; ; ; > > > < ; ; ; , > ; ; ; ",
"; ; ; ; , ; ; ; , ; e > ; ; ; ; ; ; ; , ; > > > > < , ; > ; ; ; ",
"; ; e > ; ; ; ; ; ; ; ; ; ; ; ; ; e > > ; ; > > ; ; ; ; ; ; ; ; ",
"; ; ; ; ; ; ; ; > ; , ; ; ; , ; ; ; ; ; > ; > > ; , ; ; ; , ; ; ",
"; ; ; ; ; ; ; ; ; ; , ; > > ; > ; ; ; ; ; ; ; ; > < ; ; > > ; ; ",
"> ; ; , : ; , > ; , > , > ; ; > ; ; > , > , ; > > , > , ; ; > ; ",
"> ; > > ; ; ; , ; ; ; ; , ; ; > > > ; ; > > > > ; ; ; > > ; > > ",
"; ; > ; ; ; , ; ; ; ; ; ; , ; ; > > ; ; > , > > ; > ; ; , > ; > "
};
